<?xml version="1.0" encoding="UTF-8" standalone="no" ?>
<!DOCTYPE svg PUBLIC "-//W3C//DTD SVG 1.1//EN" "http://www.w3.org/Graphics/SVG/1.1/DTD/svg11.dtd">
<svg xmlns="http://www.w3.org/2000/svg" xmlns:xlink="http://www.w3.org/1999/xlink" version="1.1" width="1080" height="500" viewBox="0 0 1080 500" xml:space="preserve">
<desc>Created with Fabric.js 5.2.4</desc>
<defs>
</defs>
<rect x="0" y="0" width="100%" height="100%" fill="transparent"></rect>
<g transform="matrix(1 0 0 1 540 250)" id="933a9e84-ca97-43a8-ac57-a04b323164f1"  >
<rect style="stroke: none; stroke-width: 1; stroke-dasharray: none; stroke-linecap: butt; stroke-dashoffset: 0; stroke-linejoin: miter; stroke-miterlimit: 4; fill: rgb(255,255,255); fill-rule: nonzero; opacity: 1; visibility: hidden;" vector-effect="non-scaling-stroke"  x="-540" y="-250" rx="0" ry="0" width="1080" height="500" />
</g>
<g transform="matrix(Infinity NaN NaN Infinity 0 0)" id="6072a941-bad4-4592-a6ee-21f855f865d6"  >
</g>
<g transform="matrix(1 0 0 1 610 185.77)" style="" id="9ae75648-01fd-4c53-9462-5cb52a2f65ac"  >
		<text xml:space="preserve" font-family="Lato" font-size="160" font-style="normal" font-weight="400" style="stroke: none; stroke-width: 1; stroke-dasharray: none; stroke-linecap: butt; stroke-dashoffset: 0; stroke-linejoin: miter; stroke-miterlimit: 4; fill: rgb(58,57,57); fill-rule: nonzero; opacity: 1; white-space: pre;" ><tspan x="-145.76" y="50.26" >Skill</tspan></text>
</g>
<g transform="matrix(1.36 0 0 1.36 724.15 386.7)" style="" id="e53262b7-0c8c-4e48-95c4-57b871421713"  >
		<text xml:space="preserve" font-family="Alegreya" font-size="200" font-style="normal" font-weight="700" style="stroke: none; stroke-width: 1; stroke-dasharray: none; stroke-linecap: butt; stroke-dashoffset: 0; stroke-linejoin: miter; stroke-miterlimit: 4; fill: rgb(38,37,37); fill-rule: nonzero; opacity: 1; white-space: pre;" ><tspan x="-199.95" y="62.83" >Hive</tspan></text>
</g>
<g transform="matrix(0.89 0 0 0.89 286.75 304.01)"  >
<path style="stroke: none; stroke-width: 1; stroke-dasharray: none; stroke-linecap: butt; stroke-dashoffset: 0; stroke-linejoin: miter; stroke-miterlimit: 4; fill: rgb(78,77,77); fill-rule: nonzero; opacity: 1;" vector-effect="non-scaling-stroke"  transform=" translate(-302.41, -316.59)" d="M 354.926 280.71 C 361.914 290.923 366.005 303.274 366.005 316.582 C 366.005 329.89 361.914 342.24 354.926 352.454 L 354.913 352.454 C 343.467 369.197 324.22 380.184 302.404 380.184 C 280.587 380.184 261.34 369.197 249.89499999999998 352.454 C 242.90699999999998 342.241 238.81599999999997 329.89 238.81599999999997 316.582 C 238.81599999999997 303.274 242.90699999999998 290.924 249.89499999999998 280.71 C 261.341 263.967 280.58799999999997 252.993 302.404 252.993 C 324.221 252.993 343.468 263.967 354.913 280.71 L 354.926 280.71 z" stroke-linecap="round" />
</g>
<g transform="matrix(0.89 0 0 0.89 286.75 430.89)"  >
<path style="stroke: none; stroke-width: 1; stroke-dasharray: none; stroke-linecap: butt; stroke-dashoffset: 0; stroke-linejoin: miter; stroke-miterlimit: 4; fill: rgb(247,178,57); fill-rule: nonzero; opacity: 1;" vector-effect="non-scaling-stroke"  transform=" translate(-302.41, -460.04)" d="M 378.303 424.183 C 397.904 424.419 413.716 440.388 413.716 460.041 C 413.716 469.953 409.704 478.908 403.214 485.398 C 396.711 491.88800000000003 387.743 495.90000000000003 377.844 495.90000000000003 L 226.963 495.90000000000003 C 207.165 495.90000000000003 191.105 479.85200000000003 191.105 460.04200000000003 C 191.105 450.13000000000005 195.117 441.16200000000003 201.607 434.672 C 207.992 428.28700000000003 216.789 424.30100000000004 226.505 424.18300000000005 L 378.303 424.18300000000005 z" stroke-linecap="round" />
</g>
<g transform="matrix(0.89 0 0 0.89 286.75 367.96)"  >
<path style="stroke: none; stroke-width: 1; stroke-dasharray: none; stroke-linecap: butt; stroke-dashoffset: 0; stroke-linejoin: miter; stroke-miterlimit: 4; fill: rgb(247,178,57); fill-rule: nonzero; opacity: 1;" vector-effect="non-scaling-stroke"  transform=" translate(-302.41, -388.32)" d="M 461.426 388.312 C 461.426 398.224 457.414 407.17900000000003 450.924 413.669 C 444.421 420.159 435.453 424.18399999999997 425.554 424.18399999999997 L 378.30199999999996 424.18399999999997 C 378.145 424.171 377.99999999999994 424.171 377.84299999999996 424.171 L 226.963 424.171 C 226.80599999999998 424.171 226.661 424.171 226.504 424.18399999999997 L 179.265 424.18399999999997 C 159.45399999999998 424.18399999999997 143.39299999999997 408.123 143.39299999999997 388.31199999999995 C 143.39299999999997 378.4 147.40499999999997 369.44499999999994 153.90799999999996 362.9549999999999 C 160.39799999999997 356.4649999999999 169.36599999999996 352.4529999999999 179.26499999999996 352.4529999999999 L 249.89399999999995 352.4529999999999 C 261.34 369.1959999999999 280.58699999999993 380.18299999999994 302.40299999999996 380.18299999999994 C 324.21999999999997 380.18299999999994 343.467 369.1959999999999 354.912 352.4529999999999 L 354.92499999999995 352.4529999999999 L 425.554 352.4529999999999 C 445.365 352.453 461.426 368.514 461.426 388.312 z" stroke-linecap="round" />
</g>
<g transform="matrix(0.89 0 0 0.89 178.74 304.01)"  >
<path style="stroke: none; stroke-width: 1; stroke-dasharray: none; stroke-linecap: butt; stroke-dashoffset: 0; stroke-linejoin: miter; stroke-miterlimit: 4; fill: rgb(247,178,57); fill-rule: nonzero; opacity: 1;" vector-effect="non-scaling-stroke"  transform=" translate(-181.25, -316.58)" d="M 179.265 280.71 L 249.894 280.71 C 242.906 290.923 238.815 303.274 238.815 316.582 C 238.815 329.89 242.906 342.24 249.894 352.454 L 179.265 352.454 L 148.48 352.454 C 128.66899999999998 352.454 112.60799999999999 336.38 112.60799999999999 316.582 C 112.60799999999999 306.67 116.633 297.715 123.10999999999999 291.225 C 129.613 284.735 138.56799999999998 280.71000000000004 148.48 280.71000000000004 L 179.265 280.71000000000004 z" stroke-linecap="round" />
</g>
<g transform="matrix(0.89 0 0 0.89 394.75 304.01)"  >
<path style="stroke: none; stroke-width: 1; stroke-dasharray: none; stroke-linecap: butt; stroke-dashoffset: 0; stroke-linejoin: miter; stroke-miterlimit: 4; fill: rgb(247,178,57); fill-rule: nonzero; opacity: 1;" vector-effect="non-scaling-stroke"  transform=" translate(-423.56, -316.58)" d="M 492.198 316.582 C 492.198 326.49399999999997 488.186 335.449 481.69599999999997 341.93899999999996 C 475.20599999999996 348.429 466.23799999999994 352.45399999999995 456.32599999999996 352.45399999999995 L 425.55499999999995 352.45399999999995 L 354.92599999999993 352.45399999999995 C 361.91399999999993 342.24099999999993 366.00499999999994 329.88999999999993 366.00499999999994 316.58199999999994 C 366.00499999999994 303.27399999999994 361.91399999999993 290.9239999999999 354.92599999999993 280.7099999999999 L 425.55499999999995 280.7099999999999 L 456.32599999999996 280.7099999999999 C 476.15 280.71 492.198 296.771 492.198 316.582 z" stroke-linecap="round" />
</g>
<g transform="matrix(0.89 0 0 0.89 286.75 240.07)"  >
<path style="stroke: none; stroke-width: 1; stroke-dasharray: none; stroke-linecap: butt; stroke-dashoffset: 0; stroke-linejoin: miter; stroke-miterlimit: 4; fill: rgb(247,178,57); fill-rule: nonzero; opacity: 1;" vector-effect="non-scaling-stroke"  transform=" translate(-302.41, -244.86)" d="M 461.426 244.852 C 461.426 254.764 457.414 263.732 450.924 270.209 C 444.421 276.712 435.453 280.711 425.554 280.711 L 354.92499999999995 280.711 L 354.912 280.711 C 343.46599999999995 263.968 324.219 252.99400000000003 302.40299999999996 252.99400000000003 C 280.58599999999996 252.99400000000003 261.33899999999994 263.968 249.89399999999995 280.711 L 179.26499999999993 280.711 C 159.45399999999992 280.711 143.39299999999992 264.676 143.39299999999992 244.853 C 143.39299999999992 234.941 147.40499999999992 225.98600000000002 153.9079999999999 219.51000000000002 C 160.3979999999999 213.007 169.3659999999999 209.008 179.2649999999999 209.008 L 425.55399999999986 209.008 C 445.365 209.006 461.426 225.041 461.426 244.852 z" stroke-linecap="round" />
</g>
<g transform="matrix(0.89 0 0 0.89 286.75 176.13)"  >
<path style="stroke: none; stroke-width: 1; stroke-dasharray: none; stroke-linecap: butt; stroke-dashoffset: 0; stroke-linejoin: miter; stroke-miterlimit: 4; fill: rgb(247,178,57); fill-rule: nonzero; opacity: 1;" vector-effect="non-scaling-stroke"  transform=" translate(-302.41, -173.13)" d="M 377.844 137.263 C 397.655 137.263 413.716 153.324 413.716 173.121 C 413.716 183.03300000000002 409.704 192.001 403.214 198.491 C 396.711 204.98100000000002 387.743 208.99300000000002 377.844 208.99300000000002 L 226.963 208.99300000000002 C 207.165 208.99300000000002 191.105 192.93200000000002 191.105 173.12100000000004 C 191.105 163.22200000000004 195.117 154.25400000000005 201.607 147.76400000000004 C 208.097 141.27400000000003 217.065 137.26200000000003 226.964 137.26200000000003 L 377.844 137.26200000000003 z" stroke-linecap="round" />
</g>
<g transform="matrix(0.89 0 0 0.89 222.79 176.13)"  >
<path style="stroke: none; stroke-width: 1; stroke-dasharray: none; stroke-linecap: butt; stroke-dashoffset: 0; stroke-linejoin: miter; stroke-miterlimit: 4; fill: rgb(224,155,45); fill-rule: nonzero; opacity: 1;" vector-effect="non-scaling-stroke"  transform=" translate(-230.67, -173.13)" d="M 234.371 173.122 C 234.371 163.223 238.383 154.25500000000002 244.87300000000002 147.76500000000001 C 251.36300000000003 141.275 260.331 137.263 270.23 137.263 L 226.96400000000003 137.263 C 217.06500000000003 137.263 208.09700000000004 141.275 201.60700000000003 147.76500000000001 C 195.11700000000002 154.25500000000002 191.10500000000002 163.223 191.10500000000002 173.122 C 191.10500000000002 192.93300000000002 207.16600000000003 208.99400000000003 226.96300000000002 208.99400000000003 L 270.22900000000004 208.99400000000003 C 250.432 208.992 234.371 192.931 234.371 173.122 z" stroke-linecap="round" />
</g>
<g transform="matrix(0.89 0 0 0.89 180.26 240.07)"  >
<path style="stroke: none; stroke-width: 1; stroke-dasharray: none; stroke-linecap: butt; stroke-dashoffset: 0; stroke-linejoin: miter; stroke-miterlimit: 4; fill: rgb(224,155,45); fill-rule: nonzero; opacity: 1;" vector-effect="non-scaling-stroke"  transform=" translate(-182.96, -244.86)" d="M 186.66 244.852 C 186.66 234.953 190.672 225.985 197.162 219.495 C 203.65200000000002 213.005 212.62 208.993 222.519 208.993 L 179.25300000000001 208.993 C 169.354 208.993 160.38600000000002 213.005 153.89600000000002 219.495 C 147.406 225.985 143.394 234.953 143.394 244.852 C 143.394 264.663 159.455 280.724 179.252 280.724 L 222.518 280.724 C 202.721 280.722 186.66 264.661 186.66 244.852 z" stroke-linecap="round" />
</g>
<g transform="matrix(0.89 0 0 0.89 152.82 304.01)"  >
<path style="stroke: none; stroke-width: 1; stroke-dasharray: none; stroke-linecap: butt; stroke-dashoffset: 0; stroke-linejoin: miter; stroke-miterlimit: 4; fill: rgb(224,155,45); fill-rule: nonzero; opacity: 1;" vector-effect="non-scaling-stroke"  transform=" translate(-152.17, -316.59)" d="M 155.875 316.582 C 155.875 306.683 159.887 297.715 166.377 291.225 C 172.86700000000002 284.735 181.835 280.723 191.734 280.723 L 148.46800000000002 280.723 C 138.56900000000002 280.723 129.60100000000003 284.735 123.11100000000002 291.225 C 116.62100000000002 297.71500000000003 112.60900000000002 306.68300000000005 112.60900000000002 316.582 C 112.60900000000002 336.393 128.67000000000002 352.454 148.467 352.454 L 191.733 352.454 C 171.936 352.452 155.875 336.391 155.875 316.582 z" stroke-linecap="round" />
</g>
<g transform="matrix(0.89 0 0 0.89 180.26 367.96)"  >
<path style="stroke: none; stroke-width: 1; stroke-dasharray: none; stroke-linecap: butt; stroke-dashoffset: 0; stroke-linejoin: miter; stroke-miterlimit: 4; fill: rgb(224,155,45); fill-rule: nonzero; opacity: 1;" vector-effect="non-scaling-stroke"  transform=" translate(-182.96, -388.32)" d="M 186.66 388.312 C 186.66 378.413 190.672 369.445 197.162 362.95500000000004 C 203.65200000000002 356.46500000000003 212.62 352.45300000000003 222.519 352.45300000000003 L 179.25300000000001 352.45300000000003 C 169.354 352.45300000000003 160.38600000000002 356.46500000000003 153.89600000000002 362.95500000000004 C 147.406 369.44500000000005 143.394 378.41300000000007 143.394 388.312 C 143.394 408.123 159.455 424.184 179.252 424.184 L 222.518 424.184 C 202.721 424.182 186.66 408.121 186.66 388.312 z" stroke-linecap="round" />
</g>
<g transform="matrix(0.89 0 0 0.89 222.79 431.9)"  >
<path style="stroke: none; stroke-width: 1; stroke-dasharray: none; stroke-linecap: butt; stroke-dashoffset: 0; stroke-linejoin: miter; stroke-miterlimit: 4; fill: rgb(224,155,45); fill-rule: nonzero; opacity: 1;" vector-effect="non-scaling-stroke"  transform=" translate(-230.67, -460.05)" d="M 234.371 460.042 C 234.371 450.143 238.383 441.17499999999995 244.87300000000002 434.68499999999995 C 251.36300000000003 428.19499999999994 260.331 424.18299999999994 270.23 424.18299999999994 L 226.96400000000003 424.18299999999994 C 217.06500000000003 424.18299999999994 208.09700000000004 428.19499999999994 201.60700000000003 434.68499999999995 C 195.11700000000002 441.17499999999995 191.10500000000002 450.143 191.10500000000002 460.0419999999999 C 191.10500000000002 479.8529999999999 207.16600000000003 495.91399999999993 226.96300000000002 495.91399999999993 L 270.22900000000004 495.91399999999993 C 250.432 495.912 234.371 479.851 234.371 460.042 z" stroke-linecap="round" />
</g>
<g transform="matrix(0.89 0 0 0.89 357.58 174.93)"  >
<circle style="stroke: none; stroke-width: 1; stroke-dasharray: none; stroke-linecap: butt; stroke-dashoffset: 0; stroke-linejoin: miter; stroke-miterlimit: 4; fill: rgb(14,14,14); fill-rule: nonzero; opacity: 1;" vector-effect="non-scaling-stroke"  cx="0" cy="0" r="9.833" />
</g>
<g transform="matrix(0.89 0 0 0.89 397.9 239.51)"  >
<circle style="stroke: none; stroke-width: 1; stroke-dasharray: none; stroke-linecap: butt; stroke-dashoffset: 0; stroke-linejoin: miter; stroke-miterlimit: 4; fill: rgb(53,53,53); fill-rule: nonzero; opacity: 1;" vector-effect="non-scaling-stroke"  cx="0" cy="0" r="9.833" />
</g>
<g transform="matrix(0.89 0 0 0.89 427.71 304.08)"  >
<circle style="stroke: none; stroke-width: 1; stroke-dasharray: none; stroke-linecap: butt; stroke-dashoffset: 0; stroke-linejoin: miter; stroke-miterlimit: 4; fill: rgb(106,105,105); fill-rule: nonzero; opacity: 1;" vector-effect="non-scaling-stroke"  cx="0" cy="0" r="9.833" />
</g>
<g transform="matrix(0.89 0 0 0.89 397.9 368.66)"  >
<circle style="stroke: none; stroke-width: 1; stroke-dasharray: none; stroke-linecap: butt; stroke-dashoffset: 0; stroke-linejoin: miter; stroke-miterlimit: 4; fill: rgb(194,194,194); fill-rule: nonzero; opacity: 1;" vector-effect="non-scaling-stroke"  cx="0" cy="0" r="9.833" />
</g>
<g transform="matrix(0.89 0 0 0.89 105.81 454.89)"  >
<circle style="stroke: none; stroke-width: 1; stroke-dasharray: none; stroke-linecap: butt; stroke-dashoffset: 0; stroke-linejoin: miter; stroke-miterlimit: 4; fill: rgb(224,155,45); fill-rule: nonzero; opacity: 1;" vector-effect="non-scaling-stroke"  cx="0" cy="0" r="9.833" />
</g>
<g transform="matrix(2.32 0 0 2.32 991.09 248.63)"  >
<circle style="stroke: none; stroke-width: 1; stroke-dasharray: none; stroke-linecap: butt; stroke-dashoffset: 0; stroke-linejoin: miter; stroke-miterlimit: 4; fill: rgb(224,155,45); fill-rule: nonzero; opacity: 1;" vector-effect="non-scaling-stroke"  cx="0" cy="0" r="9.833" />
</g>
<g transform="matrix(0.89 0 0 0.89 89.66 188.65)"  >
<circle style="stroke: none; stroke-width: 1; stroke-dasharray: none; stroke-linecap: butt; stroke-dashoffset: 0; stroke-linejoin: miter; stroke-miterlimit: 4; fill: rgb(224,155,45); fill-rule: nonzero; opacity: 1;" vector-effect="non-scaling-stroke"  cx="0" cy="0" r="9.833" />
</g>
<g transform="matrix(0.89 0 0 0.89 79.14 328.89)"  >
<circle style="stroke: none; stroke-width: 1; stroke-dasharray: none; stroke-linecap: butt; stroke-dashoffset: 0; stroke-linejoin: miter; stroke-miterlimit: 4; fill: rgb(224,155,45); fill-rule: nonzero; opacity: 1;" vector-effect="non-scaling-stroke"  cx="0" cy="0" r="9.833" />
</g>
<g transform="matrix(0.89 0 0 0.89 238.93 250)"  >
<path style="stroke: rgb(48,47,47); stroke-width: 1; stroke-dasharray: none; stroke-linecap: butt; stroke-dashoffset: 0; stroke-linejoin: miter; stroke-miterlimit: 4; fill: rgb(35,34,34); fill-rule: nonzero; opacity: 1;" vector-effect="non-scaling-stroke"  transform=" translate(-251.02, -255.98)" d="M 502.031 316.581 C 502.031 293.579 484.945 274.5 462.799 271.348 C 468.28999999999996 263.672 471.262 254.496 471.262 244.84900000000002 C 471.262 219.66000000000003 450.76 199.16600000000003 425.562 199.16600000000003 L 415.37 199.16600000000003 C 420.517 191.77100000000002 423.546 182.8 423.546 173.12800000000001 C 423.546 147.93 403.046 127.43100000000001 377.849 127.43100000000001 L 312.24399999999997 127.43100000000001 L 312.24399999999997 96.16100000000002 C 351.23999999999995 99.23600000000002 387.33799999999997 100.31500000000001 418.681 100.31500000000001 C 427.089 100.31500000000001 435.161 100.23800000000001 442.854 100.10100000000001 C 448.28499999999997 100.00400000000002 452.60699999999997 95.52500000000002 452.512 90.09500000000001 C 452.416 84.66400000000002 447.905 80.33400000000002 442.506 80.43700000000001 C 425.611 80.73600000000002 409.20899999999995 80.71000000000001 393.28099999999995 80.42000000000002 L 408.28799999999995 61.817000000000014 C 411.698 57.59000000000002 411.03499999999997 51.399000000000015 406.80799999999994 47.990000000000016 C 402.57699999999994 44.579000000000015 396.39099999999996 45.24200000000002 392.97999999999996 49.469000000000015 L 368.55999999999995 79.74400000000001 C 348.9719999999999 79.02400000000002 330.19599999999997 77.89800000000001 312.24699999999996 76.45200000000001 L 312.24699999999996 69.18700000000001 C 312.24699999999996 63.756000000000014 307.84599999999995 59.35400000000001 302.41399999999993 59.35400000000001 C 296.9819999999999 59.35400000000001 292.5809999999999 63.75700000000001 292.5809999999999 69.18700000000001 L 292.5809999999999 74.71200000000002 C 221.9189999999999 67.89300000000001 165.2889999999999 56.28800000000002 124.73699999999991 45.71800000000002 C 119.6049999999999 44.381000000000014 114.6639999999999 43.039000000000016 109.8759999999999 41.701000000000015 L 156.0959999999999 27.967000000000013 C 161.30199999999988 26.420000000000012 164.2679999999999 20.946000000000012 162.7219999999999 15.740000000000013 C 161.1749999999999 10.535000000000013 155.6999999999999 7.571000000000012 150.4959999999999 9.115000000000013 L 75.703 31.338 C 35.723 18.201 14.619 7.47 14.339 7.326 C 9.512 4.84 3.586 6.732 1.097 11.558 C -1.392 16.384 0.5 22.315 5.326 24.805 C 6.930999999999999 25.634 45.476 45.313 118.95899999999999 64.536 C 129.29399999999998 67.241 139.624 69.75 149.92399999999998 72.081 L 172.52299999999997 103.438 C 174.44499999999996 106.105 177.45399999999998 107.522 180.50799999999998 107.522 C 182.50099999999998 107.522 184.51099999999997 106.91900000000001 186.24899999999997 105.665 C 190.65399999999997 102.49000000000001 191.65199999999996 96.34400000000001 188.47699999999998 91.938 L 178.50699999999998 78.105 C 217.77299999999997 85.812 256.251 91.03 292.578 94.45700000000001 L 292.578 127.428 L 226.97199999999998 127.428 C 201.77399999999997 127.428 181.27499999999998 147.928 181.27499999999998 173.125 C 181.27499999999998 182.797 184.30399999999997 191.77 189.45099999999996 199.163 L 179.26899999999998 199.163 C 167.05999999999997 199.163 155.58499999999998 203.916 146.96399999999997 212.537 C 138.32699999999997 221.151 133.56999999999996 232.624 133.56999999999996 244.845 C 133.56999999999996 254.714 136.72399999999996 263.853 142.06299999999996 271.33 C 132.30699999999996 272.69599999999997 123.28299999999996 277.164 116.15699999999995 284.27099999999996 C 107.53299999999996 292.919 102.78299999999996 304.39199999999994 102.78299999999996 316.57599999999996 C 102.78299999999996 339.587 119.87999999999997 358.66999999999996 142.03599999999994 361.813 C 136.54399999999995 369.497 133.56999999999994 378.671 133.56999999999994 388.308 C 133.56999999999994 413.506 154.06999999999994 434.006 179.26799999999994 434.006 L 189.44299999999996 434.006 C 184.30099999999996 441.39799999999997 181.27499999999995 450.36699999999996 181.27499999999995 460.03499999999997 C 181.27499999999995 485.23299999999995 201.77499999999995 505.73199999999997 226.97199999999995 505.73199999999997 L 377.84899999999993 505.73199999999997 C 403.0469999999999 505.73199999999997 423.54599999999994 485.23199999999997 423.54599999999994 460.03499999999997 C 423.54599999999994 450.36699999999996 420.5199999999999 441.39899999999994 415.37799999999993 434.006 L 425.56299999999993 434.006 C 437.74999999999994 434.006 449.22299999999996 429.256 457.8759999999999 420.62199999999996 C 466.5079999999999 411.991 471.26199999999994 400.515 471.26199999999994 388.30699999999996 C 471.26199999999994 378.438 468.10699999999997 369.299 462.76699999999994 361.81999999999994 C 472.53299999999996 360.4529999999999 481.55199999999996 355.9839999999999 488.64699999999993 348.88899999999995 C 497.278 340.264 502.031 328.788 502.031 316.581 z M 226.97 147.096 L 377.847 147.096 C 392.20099999999996 147.096 403.87699999999995 158.774 403.87699999999995 173.126 C 403.87699999999995 187.479 392.19999999999993 199.157 377.847 199.157 L 226.97 199.157 C 212.61599999999999 199.157 200.939 187.48000000000002 200.939 173.126 C 200.939 158.772 212.616 147.096 226.97 147.096 z M 160.858 226.457 C 165.773 221.54 172.31 218.833 179.26600000000002 218.833 L 425.56 218.833 C 439.915 218.833 451.593 230.503 451.593 244.849 C 451.593 251.816 448.88800000000003 258.351 443.968 263.258 C 439.053 268.17499999999995 432.516 270.882 425.56 270.882 L 359.81600000000003 270.882 C 346.35100000000006 254.00300000000001 325.629 243.15800000000002 302.408 243.15800000000002 C 279.187 243.15800000000002 258.46500000000003 254.00300000000001 245 270.882 L 179.264 270.882 C 164.91000000000003 270.882 153.232 259.204 153.232 244.849 C 153.234 237.891 155.937 231.363 160.858 226.457 z M 302.409 370.345 C 272.765 370.345 248.648 346.22700000000003 248.648 316.58500000000004 C 248.648 286.94300000000004 272.766 262.82500000000005 302.409 262.82500000000005 C 332.052 262.82500000000005 356.169 286.94300000000004 356.169 316.58500000000004 C 356.169 346.227 332.051 370.345 302.409 370.345 z M 122.445 316.581 C 122.445 309.64000000000004 125.15499999999999 303.09900000000005 130.06 298.182 C 134.996 293.26 141.537 290.54900000000004 148.478 290.54900000000004 L 233.76600000000002 290.54900000000004 C 230.68400000000003 298.646 228.98200000000003 307.41900000000004 228.98200000000003 316.58500000000004 C 228.98200000000003 325.74800000000005 230.68400000000003 334.51800000000003 233.76500000000001 342.61600000000004 L 148.48000000000002 342.61600000000004 C 134.123 342.614 122.445 330.936 122.445 316.581 z M 403.878 460.041 C 403.878 474.395 392.20099999999996 486.072 377.84799999999996 486.072 L 226.97 486.072 C 212.61599999999999 486.072 200.939 474.394 200.939 460.041 C 200.939 445.7 212.596 434.034 226.933 434.012 L 377.88599999999997 434.012 C 392.221 434.032 403.878 445.7 403.878 460.041 z M 443.978 406.712 C 439.043 411.634 432.503 414.34499999999997 425.56100000000004 414.34499999999997 L 179.265 414.34499999999997 C 164.911 414.34499999999997 153.23299999999998 402.667 153.23299999999998 388.313 C 153.23299999999998 381.358 155.93999999999997 374.82099999999997 160.849 369.913 C 165.784 364.991 172.32399999999998 362.28000000000003 179.266 362.28000000000003 L 244.99599999999998 362.28000000000003 C 258.46099999999996 379.16200000000003 279.185 390.011 302.409 390.011 C 325.633 390.011 346.356 379.163 359.82099999999997 362.28000000000003 L 425.56199999999995 362.28000000000003 C 439.917 362.28000000000003 451.59499999999997 373.958 451.59499999999997 388.312 C 451.594 395.267 448.887 401.804 443.978 406.712 z M 474.739 334.99 C 469.82399999999996 339.907 463.287 342.61400000000003 456.33099999999996 342.61400000000003 L 371.05199999999996 342.61400000000003 C 374.13199999999995 334.51800000000003 375.835 325.74800000000005 375.835 316.583 C 375.835 307.41700000000003 374.132 298.64500000000004 371.051 290.547 L 456.33299999999997 290.547 C 470.68699999999995 290.547 482.36499999999995 302.225 482.36499999999995 316.579 C 482.364 323.535 479.656 330.073 474.739 334.99 z" stroke-linecap="round" />
</g>
<g transform="matrix(3.76 0 0 3.76 697.23 305.21)"  >
<circle style="stroke: none; stroke-width: 1; stroke-dasharray: none; stroke-linecap: butt; stroke-dashoffset: 0; stroke-linejoin: miter; stroke-miterlimit: 4; fill: rgb(224,155,45); fill-rule: nonzero; opacity: 1;" vector-effect="non-scaling-stroke"  cx="0" cy="0" r="9.833" />
</g>
<g transform="matrix(NaN NaN NaN NaN 0 0)"  >
<g style=""   >
</g>
</g>
<g transform="matrix(1.58 0 0 1.58 655.8 127.8)"  >
<circle style="stroke: none; stroke-width: 1; stroke-dasharray: none; stroke-linecap: butt; stroke-dashoffset: 0; stroke-linejoin: miter; stroke-miterlimit: 4; fill: rgb(224,155,45); fill-rule: nonzero; opacity: 1;" vector-effect="non-scaling-stroke"  cx="0" cy="0" r="9.833" />
</g>
<g transform="matrix(2.11 0 0 2.11 833.06 262.54)"  >
<circle style="stroke: none; stroke-width: 1; stroke-dasharray: none; stroke-linecap: butt; stroke-dashoffset: 0; stroke-linejoin: miter; stroke-miterlimit: 4; fill: rgb(224,155,45); fill-rule: nonzero; opacity: 1;" vector-effect="non-scaling-stroke"  cx="0" cy="0" r="9.833" />
</g>
<g transform="matrix(1.01 0 0 1.01 879.86 146.4)"  >
<circle style="stroke: none; stroke-width: 1; stroke-dasharray: none; stroke-linecap: butt; stroke-dashoffset: 0; stroke-linejoin: miter; stroke-miterlimit: 4; fill: rgb(224,155,45); fill-rule: nonzero; opacity: 1;" vector-effect="non-scaling-stroke"  cx="0" cy="0" r="9.833" />
</g>
<g transform="matrix(2.42 0 0 2.42 965.08 69.62)"  >
<circle style="stroke: none; stroke-width: 1; stroke-dasharray: none; stroke-linecap: butt; stroke-dashoffset: 0; stroke-linejoin: miter; stroke-miterlimit: 4; fill: rgb(224,155,45); fill-rule: nonzero; opacity: 1;" vector-effect="non-scaling-stroke"  cx="0" cy="0" r="9.833" />
</g>
</svg>