<?xml version="1.0" encoding="utf-8"?>
<!-- Generator: Adobe Illustrator 27.5.0, SVG Export Plug-In . SVG Version: 6.00 Build 0)  -->
<svg version="1.1" xmlns="http://www.w3.org/2000/svg" xmlns:xlink="http://www.w3.org/1999/xlink" x="0px" y="0px"
	 viewBox="0 0 500 500" style="enable-background:new 0 0 500 500;" xml:space="preserve">
<g id="Background_Simple">
	<g>
		<path style="fill:#C6FF00;" d="M370.242,157.656c30.818,36.161,17.389,88.878-8.879,124.086
			c-39.608,53.086-136.816,81.515-199.826,38.944c-47.781-32.282-80.441-90.439-63.612-141.634
			c13.251-40.312,54.123-83.368,104.366-94.589c39.407-8.802,41.33,16.002,59.591,33.606c7.511,7.241,20.27,7.369,30.812,8.121
			c16.514,1.177,32.605,2.546,47.405,9.357C352.938,141.454,362.861,148.996,370.242,157.656z"/>
		<path style="opacity:0.7;fill:#FFFFFF;" d="M370.242,157.656c30.818,36.161,17.389,88.878-8.879,124.086
			c-39.608,53.086-136.816,81.515-199.826,38.944c-47.781-32.282-80.441-90.439-63.612-141.634
			c13.251-40.312,54.123-83.368,104.366-94.589c39.407-8.802,41.33,16.002,59.591,33.606c7.511,7.241,20.27,7.369,30.812,8.121
			c16.514,1.177,32.605,2.546,47.405,9.357C352.938,141.454,362.861,148.996,370.242,157.656z"/>
	</g>
</g>
<g id="Trees">
	<g>
		<g>
			<path style="fill:#C6FF00;" d="M80.073,377.252h29.061c-0.558-3.555-2.841-2.93-3.144-8.437
				c-0.153-2.774,2.414-6.207,2.192-9.851c-0.183-3.002-3.143-6.079-3.372-9.513c-0.207-3.099,2.319-6.537,2.073-9.877
				c-0.232-3.158-3.232-6.187-3.497-9.468c-0.259-3.201,2.214-6.675,1.923-9.911c-0.292-3.239-3.346-6.211-3.669-9.402
				c-0.332-3.28,2.061-6.811,1.695-9.951c-0.389-3.332-3.533-6.21-3.959-9.28c-0.475-3.418,1.752-7.07,1.231-10.021
				c-0.639-3.616-4.004-6.232-4.712-8.898c-1.319-4.97-1.155-9.76-2.712-10.072c-1.663-0.333-2.042,4.363-3.303,9.611
				c-0.633,2.636-3.924,5.308-4.465,8.926c-0.438,2.93,1.888,6.492,1.507,9.896c-0.341,3.048-3.406,5.979-3.704,9.293
				c-0.281,3.117,2.207,6.554,1.962,9.813c-0.238,3.167-3.211,6.189-3.417,9.406c-0.205,3.21,2.359,6.588,2.184,9.765
				c-0.179,3.255-3.099,6.33-3.248,9.464c-0.158,3.313,2.456,6.655,2.329,9.73c-0.141,3.406-3.021,6.527-3.126,9.504
				c-0.128,3.614,2.525,6.95,2.443,9.701c-0.178,5.973-2.912,4.736-3.01,9.542L80.073,377.252z"/>
			<path style="opacity:0.2;fill:#FFFFFF;" d="M80.073,377.252h29.061c-0.558-3.555-2.841-2.93-3.144-8.437
				c-0.153-2.774,2.414-6.207,2.192-9.851c-0.183-3.002-3.143-6.079-3.372-9.513c-0.207-3.099,2.319-6.537,2.073-9.877
				c-0.232-3.158-3.232-6.187-3.497-9.468c-0.259-3.201,2.214-6.675,1.923-9.911c-0.292-3.239-3.346-6.211-3.669-9.402
				c-0.332-3.28,2.061-6.811,1.695-9.951c-0.389-3.332-3.533-6.21-3.959-9.28c-0.475-3.418,1.752-7.07,1.231-10.021
				c-0.639-3.616-4.004-6.232-4.712-8.898c-1.319-4.97-1.155-9.76-2.712-10.072c-1.663-0.333-2.042,4.363-3.303,9.611
				c-0.633,2.636-3.924,5.308-4.465,8.926c-0.438,2.93,1.888,6.492,1.507,9.896c-0.341,3.048-3.406,5.979-3.704,9.293
				c-0.281,3.117,2.207,6.554,1.962,9.813c-0.238,3.167-3.211,6.189-3.417,9.406c-0.205,3.21,2.359,6.588,2.184,9.765
				c-0.179,3.255-3.099,6.33-3.248,9.464c-0.158,3.313,2.456,6.655,2.329,9.73c-0.141,3.406-3.021,6.527-3.126,9.504
				c-0.128,3.614,2.525,6.95,2.443,9.701c-0.178,5.973-2.912,4.736-3.01,9.542L80.073,377.252z"/>
			
				<line style="fill:none;stroke:#000000;stroke-width:0.6066;stroke-miterlimit:10;" x1="92.548" y1="272.124" x2="92.548" y2="375.91"/>
			<polyline style="fill:none;stroke:#000000;stroke-width:0.6066;stroke-miterlimit:10;" points="97.086,283.004 92.354,287.09 
				88.483,281.929 			"/>
			<polyline style="fill:none;stroke:#000000;stroke-width:0.6066;stroke-miterlimit:10;" points="97.086,301.069 92.354,305.155 
				88.483,299.994 			"/>
			<polyline style="fill:none;stroke:#000000;stroke-width:0.6066;stroke-miterlimit:10;" points="97.086,318.058 92.354,322.144 
				88.483,316.983 			"/>
			<polyline style="fill:none;stroke:#000000;stroke-width:0.6066;stroke-miterlimit:10;" points="97.086,338.274 92.354,342.36 
				88.483,337.199 			"/>
			<polyline style="fill:none;stroke:#000000;stroke-width:0.6066;stroke-miterlimit:10;" points="97.086,358.704 92.354,362.79 
				88.483,357.629 			"/>
		</g>
		<g>
			<path style="fill:#C6FF00;" d="M60.278,377.252H82.71c-0.431-2.744-2.193-2.262-2.427-6.513
				c-0.118-2.141,1.864-4.791,1.692-7.604c-0.141-2.317-2.426-4.693-2.603-7.343c-0.16-2.392,1.79-5.046,1.6-7.624
				c-0.179-2.437-2.494-4.775-2.7-7.308c-0.2-2.471,1.709-5.153,1.485-7.65c-0.225-2.5-2.583-4.795-2.832-7.257
				c-0.257-2.532,1.591-5.258,1.308-7.681c-0.3-2.572-2.727-4.794-3.056-7.163c-0.366-2.639,1.353-5.457,0.95-7.735
				c-0.493-2.791-3.09-4.811-3.637-6.869c-1.018-3.836-0.891-7.534-2.094-7.775c-1.284-0.257-1.576,3.368-2.55,7.419
				c-0.489,2.035-3.029,4.097-3.447,6.89c-0.338,2.261,1.458,5.011,1.163,7.639c-0.263,2.353-2.629,4.615-2.859,7.173
				c-0.217,2.406,1.704,5.059,1.515,7.575c-0.184,2.445-2.479,4.777-2.638,7.26c-0.158,2.478,1.821,5.085,1.686,7.538
				c-0.139,2.513-2.392,4.886-2.507,7.305c-0.122,2.557,1.896,5.137,1.798,7.51c-0.109,2.629-2.332,5.038-2.413,7.336
				c-0.099,2.79,1.949,5.365,1.886,7.488c-0.137,4.611-2.248,3.656-2.324,7.366L60.278,377.252z"/>
			<path style="opacity:0.2;fill:#FFFFFF;" d="M60.278,377.252H82.71c-0.431-2.744-2.193-2.262-2.427-6.513
				c-0.118-2.141,1.864-4.791,1.692-7.604c-0.141-2.317-2.426-4.693-2.603-7.343c-0.16-2.392,1.79-5.046,1.6-7.624
				c-0.179-2.437-2.494-4.775-2.7-7.308c-0.2-2.471,1.709-5.153,1.485-7.65c-0.225-2.5-2.583-4.795-2.832-7.257
				c-0.257-2.532,1.591-5.258,1.308-7.681c-0.3-2.572-2.727-4.794-3.056-7.163c-0.366-2.639,1.353-5.457,0.95-7.735
				c-0.493-2.791-3.09-4.811-3.637-6.869c-1.018-3.836-0.891-7.534-2.094-7.775c-1.284-0.257-1.576,3.368-2.55,7.419
				c-0.489,2.035-3.029,4.097-3.447,6.89c-0.338,2.261,1.458,5.011,1.163,7.639c-0.263,2.353-2.629,4.615-2.859,7.173
				c-0.217,2.406,1.704,5.059,1.515,7.575c-0.184,2.445-2.479,4.777-2.638,7.26c-0.158,2.478,1.821,5.085,1.686,7.538
				c-0.139,2.513-2.392,4.886-2.507,7.305c-0.122,2.557,1.896,5.137,1.798,7.51c-0.109,2.629-2.332,5.038-2.413,7.336
				c-0.099,2.79,1.949,5.365,1.886,7.488c-0.137,4.611-2.248,3.656-2.324,7.366L60.278,377.252z"/>
			
				<line style="fill:none;stroke:#000000;stroke-width:0.6066;stroke-miterlimit:10;" x1="69.907" y1="296.102" x2="69.907" y2="376.216"/>
			<polyline style="fill:none;stroke:#000000;stroke-width:0.6066;stroke-miterlimit:10;" points="73.41,304.501 69.758,307.655 
				66.77,303.671 			"/>
			<polyline style="fill:none;stroke:#000000;stroke-width:0.6066;stroke-miterlimit:10;" points="73.41,318.445 69.758,321.599 
				66.77,317.615 			"/>
			<polyline style="fill:none;stroke:#000000;stroke-width:0.6066;stroke-miterlimit:10;" points="73.41,331.56 69.758,334.714 
				66.77,330.73 			"/>
			<polyline style="fill:none;stroke:#000000;stroke-width:0.6066;stroke-miterlimit:10;" points="73.41,347.164 69.758,350.318 
				66.77,346.334 			"/>
			<polyline style="fill:none;stroke:#000000;stroke-width:0.6066;stroke-miterlimit:10;" points="73.41,362.935 69.758,366.089 
				66.77,362.105 			"/>
		</g>
	</g>
	<g>
		<g>
			<path style="fill:#C6FF00;" d="M408.851,377.252H437c-0.541-3.444-2.752-2.838-3.045-8.172c-0.148-2.687,2.339-6.012,2.124-9.542
				c-0.177-2.907-3.044-5.888-3.266-9.214c-0.201-3.001,2.246-6.332,2.008-9.567c-0.225-3.058-3.13-5.992-3.387-9.17
				c-0.251-3.101,2.145-6.466,1.863-9.6c-0.282-3.137-3.24-6.016-3.554-9.106c-0.322-3.177,1.996-6.597,1.641-9.638
				c-0.376-3.228-3.422-6.015-3.835-8.988c-0.46-3.311,1.697-6.848,1.193-9.706c-0.619-3.502-3.878-6.036-4.564-8.619
				c-1.278-4.814-1.118-9.454-2.627-9.756c-1.611-0.322-1.978,4.226-3.199,9.31c-0.613,2.553-3.801,5.141-4.325,8.645
				c-0.424,2.838,1.829,6.288,1.46,9.585c-0.331,2.952-3.299,5.791-3.588,9.001c-0.272,3.019,2.138,6.348,1.901,9.505
				c-0.231,3.068-3.111,5.995-3.31,9.111c-0.199,3.109,2.285,6.381,2.116,9.459c-0.174,3.153-3.001,6.132-3.146,9.166
				c-0.153,3.209,2.379,6.446,2.256,9.424c-0.136,3.298-2.926,6.322-3.028,9.205c-0.124,3.501,2.446,6.732,2.367,9.397
				c-0.172,5.786-2.82,4.587-2.916,9.243L408.851,377.252z"/>
			<path style="opacity:0.2;fill:#FFFFFF;" d="M408.851,377.252H437c-0.541-3.444-2.752-2.838-3.045-8.172
				c-0.148-2.687,2.339-6.012,2.124-9.542c-0.177-2.907-3.044-5.888-3.266-9.214c-0.201-3.001,2.246-6.332,2.008-9.567
				c-0.225-3.058-3.13-5.992-3.387-9.17c-0.251-3.101,2.145-6.466,1.863-9.6c-0.282-3.137-3.24-6.016-3.554-9.106
				c-0.322-3.177,1.996-6.597,1.641-9.638c-0.376-3.228-3.422-6.015-3.835-8.988c-0.46-3.311,1.697-6.848,1.193-9.706
				c-0.619-3.502-3.878-6.036-4.564-8.619c-1.278-4.814-1.118-9.454-2.627-9.756c-1.611-0.322-1.978,4.226-3.199,9.31
				c-0.613,2.553-3.801,5.141-4.325,8.645c-0.424,2.838,1.829,6.288,1.46,9.585c-0.331,2.952-3.299,5.791-3.588,9.001
				c-0.272,3.019,2.138,6.348,1.901,9.505c-0.231,3.068-3.111,5.995-3.31,9.111c-0.199,3.109,2.285,6.381,2.116,9.459
				c-0.174,3.153-3.001,6.132-3.146,9.166c-0.153,3.209,2.379,6.446,2.256,9.424c-0.136,3.298-2.926,6.322-3.028,9.205
				c-0.124,3.501,2.446,6.732,2.367,9.397c-0.172,5.786-2.82,4.587-2.916,9.243L408.851,377.252z"/>
			
				<line style="fill:none;stroke:#000000;stroke-width:0.6066;stroke-miterlimit:10;" x1="420.935" y1="275.425" x2="420.935" y2="375.952"/>
			<polyline style="fill:none;stroke:#000000;stroke-width:0.6066;stroke-miterlimit:10;" points="425.33,285.964 420.748,289.921 
				416.998,284.922 			"/>
			<polyline style="fill:none;stroke:#000000;stroke-width:0.6066;stroke-miterlimit:10;" points="425.33,303.461 420.748,307.419 
				416.998,302.42 			"/>
			<polyline style="fill:none;stroke:#000000;stroke-width:0.6066;stroke-miterlimit:10;" points="425.33,319.917 420.748,323.875 
				416.998,318.876 			"/>
			<polyline style="fill:none;stroke:#000000;stroke-width:0.6066;stroke-miterlimit:10;" points="425.33,339.498 420.748,343.456 
				416.998,338.456 			"/>
			<polyline style="fill:none;stroke:#000000;stroke-width:0.6066;stroke-miterlimit:10;" points="425.33,359.287 420.748,363.245 
				416.998,358.245 			"/>
		</g>
		<g>
			<path style="fill:#C6FF00;" d="M389.678,377.252h21.728c-0.417-2.658-2.124-2.19-2.35-6.308
				c-0.114-2.074,1.805-4.641,1.639-7.365c-0.137-2.244-2.35-4.545-2.521-7.112c-0.155-2.317,1.734-4.888,1.55-7.385
				c-0.173-2.361-2.416-4.625-2.615-7.079c-0.194-2.394,1.656-4.991,1.438-7.41c-0.218-2.422-2.501-4.644-2.743-7.029
				c-0.249-2.452,1.541-5.092,1.267-7.44c-0.29-2.491-2.641-4.643-2.96-6.938c-0.355-2.556,1.31-5.286,0.92-7.492
				c-0.477-2.704-2.993-4.659-3.523-6.653c-0.986-3.716-0.863-7.297-2.028-7.53c-1.244-0.249-1.527,3.262-2.47,7.186
				c-0.473,1.971-2.934,3.969-3.338,6.674c-0.328,2.19,1.412,4.854,1.127,7.399c-0.255,2.279-2.546,4.47-2.769,6.948
				c-0.21,2.33,1.65,4.9,1.467,7.337c-0.178,2.368-2.401,4.627-2.555,7.033c-0.153,2.4,1.764,4.926,1.633,7.301
				c-0.134,2.434-2.317,4.733-2.429,7.076c-0.118,2.477,1.836,4.976,1.741,7.275c-0.105,2.546-2.258,4.88-2.337,7.106
				c-0.096,2.702,1.888,5.197,1.827,7.253c-0.133,4.466-2.177,3.541-2.251,7.134L389.678,377.252z"/>
			<path style="opacity:0.2;fill:#FFFFFF;" d="M389.678,377.252h21.728c-0.417-2.658-2.124-2.19-2.35-6.308
				c-0.114-2.074,1.805-4.641,1.639-7.365c-0.137-2.244-2.35-4.545-2.521-7.112c-0.155-2.317,1.734-4.888,1.55-7.385
				c-0.173-2.361-2.416-4.625-2.615-7.079c-0.194-2.394,1.656-4.991,1.438-7.41c-0.218-2.422-2.501-4.644-2.743-7.029
				c-0.249-2.452,1.541-5.092,1.267-7.44c-0.29-2.491-2.641-4.643-2.96-6.938c-0.355-2.556,1.31-5.286,0.92-7.492
				c-0.477-2.704-2.993-4.659-3.523-6.653c-0.986-3.716-0.863-7.297-2.028-7.53c-1.244-0.249-1.527,3.262-2.47,7.186
				c-0.473,1.971-2.934,3.969-3.338,6.674c-0.328,2.19,1.412,4.854,1.127,7.399c-0.255,2.279-2.546,4.47-2.769,6.948
				c-0.21,2.33,1.65,4.9,1.467,7.337c-0.178,2.368-2.401,4.627-2.555,7.033c-0.153,2.4,1.764,4.926,1.633,7.301
				c-0.134,2.434-2.317,4.733-2.429,7.076c-0.118,2.477,1.836,4.976,1.741,7.275c-0.105,2.546-2.258,4.88-2.337,7.106
				c-0.096,2.702,1.888,5.197,1.827,7.253c-0.133,4.466-2.177,3.541-2.251,7.134L389.678,377.252z"/>
			
				<line style="fill:none;stroke:#000000;stroke-width:0.6066;stroke-miterlimit:10;" x1="399.005" y1="298.651" x2="399.005" y2="376.249"/>
			<polyline style="fill:none;stroke:#000000;stroke-width:0.6066;stroke-miterlimit:10;" points="402.398,306.785 398.861,309.84 
				395.967,305.981 			"/>
			<polyline style="fill:none;stroke:#000000;stroke-width:0.6066;stroke-miterlimit:10;" points="402.398,320.292 398.861,323.347 
				395.967,319.488 			"/>
			<polyline style="fill:none;stroke:#000000;stroke-width:0.6066;stroke-miterlimit:10;" points="402.398,332.995 398.861,336.05 
				395.967,332.19 			"/>
			<polyline style="fill:none;stroke:#000000;stroke-width:0.6066;stroke-miterlimit:10;" points="402.398,348.109 398.861,351.164 
				395.967,347.305 			"/>
			<polyline style="fill:none;stroke:#000000;stroke-width:0.6066;stroke-miterlimit:10;" points="402.398,363.384 398.861,366.44 
				395.967,362.58 			"/>
		</g>
	</g>
</g>
<g id="Ground">
	<g>
		<ellipse style="fill:#C6FF00;" cx="246.158" cy="399.266" rx="209.307" ry="22.653"/>
		<ellipse style="opacity:0.5;fill:#FFFFFF;" cx="246.158" cy="399.266" rx="209.307" ry="22.653"/>
	</g>
</g>
<g id="Characters">
	<g>
		
			<polygon id="XMLID_90_" style="fill:#263238;stroke:#263238;stroke-linecap:round;stroke-linejoin:round;stroke-miterlimit:10;" points="
			126.943,268.028 135.473,327.237 109.381,386.112 116.74,387.952 154.038,326.067 157.384,290.273 192.842,316.533 
			207.059,378.753 215.589,377.917 207.394,303.821 169.259,262.843 166.583,256.655 		"/>
		
			<polygon id="XMLID_89_" style="fill:#FFFFFF;stroke:#263238;stroke-linecap:round;stroke-linejoin:round;stroke-miterlimit:10;" points="
			202.664,163.266 199.758,156.192 207.513,148.15 209.093,148.724 212.644,150.221 214.971,152.665 207.799,164.79 		"/>
		<path id="XMLID_88_" style="fill:#FFFFFF;stroke:#263238;stroke-linecap:round;stroke-linejoin:round;stroke-miterlimit:10;" d="
			M199.614,155.761c0,0,0.144-1.436,0.287-3.734c0.144-2.298-1.005-4.309,0.287-4.452c1.292-0.144,2.441,1.005,2.585,2.441
			c0.144,1.436,0.287,4.021,0.287,4.021s1.58,1.293,2.154,3.447c0.574,2.154-2.585,4.883-2.585,4.883L199.614,155.761z"/>
		
			<polygon id="XMLID_87_" style="fill:#FFFFFF;stroke:#263238;stroke-linecap:round;stroke-linejoin:round;stroke-miterlimit:10;" points="
			178.882,197.894 183.242,198.272 202.807,163.41 207.943,164.934 189.13,211.054 179.882,208.894 		"/>
		<g>
			<g>
				<g>
					
						<path id="XMLID_86_" style="fill:#FFFFFF;stroke:#263238;stroke-linecap:round;stroke-linejoin:round;stroke-miterlimit:10;" d="
						M122.317,192.705c0,0-15.78,16.151-15.78,18.623c0,2.472,19.415,55.974,20.288,57.428c0.873,1.454,39.989-10.615,39.989-11.051
						c0-0.436,0.436-1.745-0.727-4.508c-1.163-2.763-11.197-43.479-11.197-43.479l26.531,3.763l-1.29-15.837
						c0,0-31.495-6.103-38.184-6.975C135.259,189.796,126.244,189.36,122.317,192.705z"/>
					<polyline style="fill:none;stroke:#263238;stroke-linecap:round;stroke-linejoin:round;stroke-miterlimit:10;" points="
						151.637,199.725 154.89,209.718 155.484,200.879 					"/>
				</g>
				
					<path id="XMLID_85_" style="fill:#C6FF00;stroke:#263238;stroke-linecap:round;stroke-linejoin:round;stroke-miterlimit:10;" d="
					M123.481,188.197c0,0-4.653,1.745-4.799,5.526c-0.145,3.781,6.689,18.758,6.689,18.758s7.562-8.579,8.87-9.452
					c1.309-0.873,13.233,1.163,13.233,1.163s-5.962-10.906-12.651-14.541C128.134,186.016,123.481,188.197,123.481,188.197z"/>
			</g>
			<path id="XMLID_84_" style="fill:#FFFFFF;stroke:#263238;stroke-linecap:round;stroke-linejoin:round;stroke-miterlimit:10;" d="
				M120.282,184.125c0,0,1.745,5.089,5.671,11.197c3.926,6.107,12.796,17.013,12.942,13.669s-5.235-15.268-5.962-19.631
				c-0.727-4.362-1.018-5.526-1.018-5.526S122.608,186.016,120.282,184.125z"/>
		</g>
		<path id="XMLID_83_" style="fill:#FFFFFF;stroke:#263238;stroke-linecap:round;stroke-linejoin:round;stroke-miterlimit:10;" d="
			M110.886,205.474c0,0,5.185-5.185,11.541,6.356c6.356,11.541,25.59,55.362,25.59,55.362l-4.683,0.167
			c0,0-21.074-46.999-23.249-51.515c-2.174-4.516-5.52-11.039-11.374-7.694L110.886,205.474z"/>
		
			<polygon id="XMLID_82_" style="fill:#FFFFFF;stroke:#263238;stroke-linecap:round;stroke-linejoin:round;stroke-miterlimit:10;" points="
			105.032,216.178 98.007,266.356 102.188,266.523 108.043,216.178 		"/>
		<g>
			<path id="XMLID_81_" style="fill:#263238;stroke:#263238;stroke-linecap:round;stroke-linejoin:round;stroke-miterlimit:10;" d="
				M107.776,168.566c0,0-0.436,2.908,0.291,4.072c0.727,1.163,6.107,6.544,6.834,5.235c0.727-1.309,1.6-8.579,0.145-10.615
				C113.592,165.221,109.812,165.367,107.776,168.566z"/>
			<g>
				
					<path id="XMLID_80_" style="fill:#FFFFFF;stroke:#263238;stroke-linecap:round;stroke-linejoin:round;stroke-miterlimit:10;" d="
					M136.277,162.604c0,0,3.345,11.488,3.345,13.96c0,2.472-2.618,8.87-5.09,10.179c-2.472,1.309-3.49,1.018-5.38,0.872
					c-1.89-0.145-8.434-0.872-10.906-2.908c-2.472-2.036-3.199-3.49-3.199-3.49s-3.49,0.146-6.253-2.472
					c-2.763-2.617-3.199-6.107-1.454-6.98c1.745-0.872,5.671,2.327,5.671,2.327l-0.582-3.926l20.94-9.452
					C133.369,160.713,135.55,160.859,136.277,162.604z"/>
				<path id="XMLID_79_" style="fill:none;stroke:#263238;stroke-linecap:round;stroke-linejoin:round;stroke-miterlimit:10;" d="
					M131.188,169.002c0,0,0.872,2.327,1.745,2.763c0.872,0.436,2.763,0.873,1.745,2.036s-2.181,1.745-2.181,1.745"/>
				<path id="XMLID_78_" style="fill:none;stroke:#263238;stroke-linecap:round;stroke-linejoin:round;stroke-miterlimit:10;" d="
					M131.769,180.053c0,0-3.781,2.181-6.107-1.163"/>
			</g>
		</g>
		<g>
			<path id="XMLID_77_" style="fill:#263238;stroke:#263238;stroke-linecap:round;stroke-linejoin:round;stroke-miterlimit:10;" d="
				M375.428,163.608c0,0-7.684,0.904-9.266-9.266c-1.582-10.17,23.051-12.656,31.865-12.204c8.814,0.452,15.367,7.684,15.819,17.853
				s-5.198,19.435-5.876,24.859c-0.678,5.424,5.65,2.034,5.65,2.034s0.226,6.554-8.588,9.944c-8.814,3.39-17.401,1.582-19.209-3.39
				c-1.808-4.972,2.034-12.43,3.39-14.915c1.356-2.486-3.164-6.328-3.842-10.848c-0.678-4.52,0.678-7.458,0.678-7.458
				S378.14,163.834,375.428,163.608z"/>
			<path style="fill:none;stroke:#FFFFFF;stroke-width:0.75;stroke-linecap:round;stroke-linejoin:round;stroke-miterlimit:10;" d="
				M391.264,156.81c0,0-3.008,3.715,4.777,8.493c7.785,4.777,12.208,4.777,13.801,7.785"/>
			<path style="fill:none;stroke:#FFFFFF;stroke-width:0.75;stroke-linecap:round;stroke-linejoin:round;stroke-miterlimit:10;" d="
				M412.061,167.987c0.202,1.109,0.213,2.181,0.08,3.154"/>
			<path style="fill:none;stroke:#FFFFFF;stroke-width:0.75;stroke-linecap:round;stroke-linejoin:round;stroke-miterlimit:10;" d="
				M396.572,153.272c0,0,0.177,2.477,7.254,5.485c4.466,1.898,6.819,4.783,7.813,7.631"/>
			<path style="fill:none;stroke:#FFFFFF;stroke-width:0.75;stroke-linecap:round;stroke-linejoin:round;stroke-miterlimit:10;" d="
				M402.142,194.742c0.788,0.705,1.728,1.125,2.745,1.169"/>
			<path style="fill:none;stroke:#FFFFFF;stroke-width:0.75;stroke-linecap:round;stroke-linejoin:round;stroke-miterlimit:10;" d="
				M399.58,172.557c0,0,4.777,4.246,1.592,10.616c-1.743,3.486-1.684,6.919-0.606,9.342"/>
			<path style="fill:none;stroke:#FFFFFF;stroke-width:0.75;stroke-linecap:round;stroke-linejoin:round;stroke-miterlimit:10;" d="
				M370.74,152.478c-1.754-0.329-2.946-0.217-3.361,0.97"/>
			<path style="fill:none;stroke:#FFFFFF;stroke-width:0.75;stroke-linecap:round;stroke-linejoin:round;stroke-miterlimit:10;" d="
				M399.58,147.964c0,0-4.069,5.485-13.447,6.723c-4.937,0.652-9.531-0.707-12.956-1.623"/>
			<path style="fill:none;stroke:#FFFFFF;stroke-width:0.75;stroke-linecap:round;stroke-linejoin:round;stroke-miterlimit:10;" d="
				M368.086,159.287c0,0,2.831-2.831,5.662-0.177"/>
		</g>
		<g>
			<path id="XMLID_76_" style="fill:#FFFFFF;stroke:#263238;stroke-linecap:round;stroke-linejoin:round;stroke-miterlimit:10;" d="
				M377.382,189.519c0,0-18.75,4.5-19.625,5.625s-18.75,30.125-18.75,30.125l-45.75-4.25l-0.375,6.375l52.5,8.75l10.125-9.625
				l3.75,9.625c0,0-11,20.875-13.75,34.125s-5.75,44.75-5.875,56.125s0.5,23.25,3.25,33s10,27.875,10,27.875s-10.875,5.875-15.5,8
				s-2.75,2.875-1.25,3.25s10.75-0.25,16.625-1s10.75,0.5,10.75-1.75s-2.875-11.125-3.5-13.875s-5-25.875-5-37.75
				s4.75-31.125,4.75-31.125l5.625-21c0,0-1.875,32.25-0.625,41.25s18.375,55.875,18.375,55.875s-7.75,7.75-10.5,11.75
				s-1.961,5.235-0.5,4.875c12-2.958,15.833-8.25,17.833-9.625s0.042-5.125-0.958-7.625s-4.25-34.375-5.375-42.625
				s-3-16.125-3-16.125s14.75-41.5,13.75-58s-7.625-37.875-7.625-37.875s14.625-25.75,14.375-28.125s-14.625-15.125-14.625-15.125
				L377.382,189.519z"/>
			<path id="XMLID_75_" style="fill:#263238;stroke:#263238;stroke-linecap:round;stroke-linejoin:round;stroke-miterlimit:10;" d="
				M367.799,271.978c-10.573-3.32-17.063-5.677-20.851-7.17c-0.59,1.906-1.085,3.748-1.441,5.461
				c-2.75,13.25-5.75,44.75-5.875,56.125s0.5,23.25,3.25,33c0.886,3.142,2.24,7.153,3.668,11.148
				c2.699,0.867,6.515,1.179,11.252-0.772c-1.348-8.255-2.795-18.798-2.795-25.626c0-11.875,4.75-31.125,4.75-31.125l5.625-21
				c0,0-1.875,32.25-0.625,41.25c0.686,4.938,6.151,21.279,10.944,35.022c3.319-0.243,6.892-0.967,10.249-2.55
				c-0.935-8.178-1.828-16.254-2.318-19.847c-1.125-8.25-3-16.125-3-16.125s13.311-37.453,13.784-55.344
				C387.758,275.227,378.302,275.276,367.799,271.978z"/>
			<path id="XMLID_74_" style="fill:#263238;stroke:#263238;stroke-linecap:round;stroke-linejoin:round;stroke-miterlimit:10;" d="
				M352.757,397.519c5.875-0.75,10.75,0.5,10.75-1.75c0-0.833-0.395-2.578-0.924-4.581l-7.618,1.289c0,0-0.333-1.667-0.5-3.333
				c-0.167-1.667-1.583-1.875-1.583-1.875s-10.875,5.875-15.5,8s-2.75,2.875-1.25,3.25S346.882,398.269,352.757,397.519z"/>
			<path id="XMLID_73_" style="fill:#263238;stroke:#263238;stroke-linecap:round;stroke-linejoin:round;stroke-miterlimit:10;" d="
				M384.132,390.311c-0.676-0.422-1.264-0.501-1.682-0.477c-1.945,1.978-7.561,7.778-9.818,11.061c-2.75,4-1.961,5.235-0.5,4.875
				c12-2.958,15.833-8.25,17.833-9.625c1.309-0.9,0.92-2.818,0.216-4.736c-1.688,1.099-3.261,2.07-3.549,2.07
				C385.965,393.478,385.465,391.144,384.132,390.311z"/>
		</g>
		<g>
			<g>
				
					<polygon id="XMLID_72_" style="fill:#FFFFFF;stroke:#263238;stroke-linecap:round;stroke-linejoin:round;stroke-miterlimit:10;" points="
					305.375,222.875 299.25,218.25 290.25,217.75 290.25,219.75 294.25,220.75 294.75,222 285,223 285.25,226.75 295,230.75 
					305,229.25 				"/>
				<g>
					
						<path id="XMLID_71_" style="fill:#C6FF00;stroke:#263238;stroke-linecap:round;stroke-linejoin:round;stroke-miterlimit:10;" d="
						M386.507,190.644l-9.125-1.125c0,0-18.75,4.5-19.625,5.625s-18.75,30.125-18.75,30.125l-33.632-2.394L305,229.25l40.382,6.894
						l10.125-9.625l3.75,9.625c0,0-11,20.875-13.75,34.125c-0.216,1.04-0.433,2.204-0.651,3.451c6.985,4,25.37,12.533,48.869,7.967
						c0.556-3.787,0.822-7.194,0.657-9.918c-1-16.5-7.625-37.875-7.625-37.875s14.625-25.75,14.375-28.125
						S386.507,190.644,386.507,190.644z"/>
					<path style="fill:none;stroke:#263238;stroke-linecap:round;stroke-linejoin:round;stroke-miterlimit:10;" d="M366.544,226.981
						c0,0,6.068,8.596,10.619,10.113"/>
				</g>
			</g>
			<path id="XMLID_70_" style="fill:#FFFFFF;stroke:#263238;stroke-linecap:round;stroke-linejoin:round;stroke-miterlimit:10;" d="
				M375.632,209.394c2.578-1.237,12.804-10.549,16.309-13.774c-2.932-2.757-5.434-4.976-5.434-4.976l-9.125-1.125
				c0,0-1.575,0.378-3.828,0.941c-0.668,2.436-1.589,6.438-2.172,11.684C370.382,211.144,372.507,210.894,375.632,209.394z"/>
		</g>
		<path id="XMLID_69_" style="fill:#FFFFFF;stroke:#263238;stroke-linecap:round;stroke-linejoin:round;stroke-miterlimit:10;" d="
			M376.882,184.519c0,0,0,3.75-0.875,7.5s-3.125,13.375-1.75,13.625s13.25-13,13.25-13l1.25-10.875L376.882,184.519z"/>
		<path id="XMLID_68_" style="fill:none;stroke:#263238;stroke-linecap:round;stroke-linejoin:round;stroke-miterlimit:10;" d="
			M359.257,203.519c0,0,0.75,5,0.5,5.875s-5.625,5.5-5.625,8.875s1.375,8.25,1.375,8.25"/>
		<g id="XMLID_65_">
			
				<path id="XMLID_67_" style="fill:#C6FF00;stroke:#263238;stroke-width:2;stroke-linecap:round;stroke-linejoin:round;stroke-miterlimit:10;" d="
				M326.466,258.318l-146.387,2.645c-2.164,0.039-3.951-1.684-3.99-3.848l-1.787-98.895c-0.039-2.164,1.684-3.951,3.848-3.99
				l146.387-2.646c2.164-0.039,3.951,1.684,3.99,3.848l1.787,98.895C330.353,256.492,328.631,258.279,326.466,258.318z"/>
			
				<path id="XMLID_66_" style="fill:#C6FF00;stroke:#263238;stroke-width:2;stroke-linecap:round;stroke-linejoin:round;stroke-miterlimit:10;" d="
				M174.302,158.22l75.286,56.373c2.371,1.775,5.653,1.678,7.915-0.235l70.758-59.841"/>
		</g>
		<g>
			<path id="XMLID_64_" style="fill:#263238;stroke:#263238;stroke-linecap:round;stroke-linejoin:round;stroke-miterlimit:10;" d="
				M108.067,171.765l27.92-12.506c0,0-4.362-9.452-6.544-11.924c-2.181-2.472-10.761-3.344-16.141-1.163
				c-5.38,2.181-10.034,7.998-10.324,10.906C102.686,159.986,108.067,171.765,108.067,171.765z"/>
			<path id="XMLID_63_" style="fill:#263238;stroke:#263238;stroke-linecap:round;stroke-linejoin:round;stroke-miterlimit:10;" d="
				M150.528,156.496c0,0,0.146,2.618-3.781,4.653c-3.926,2.036-11.051,2.181-9.307-0.291
				C139.185,158.387,149.801,155.915,150.528,156.496z"/>
			<path id="XMLID_62_" style="fill:#C6FF00;stroke:#263238;stroke-linecap:round;stroke-linejoin:round;stroke-miterlimit:10;" d="
				M112.429,170.165c0,0,7.271,3.926,15.559-0.146c8.289-4.072,11.779-9.307,16.432-11.197c4.653-1.89,8.143-2.472,5.38-3.054
				c-2.763-0.582-13.814,3.49-13.814,3.49L112.429,170.165z"/>
			<g id="XMLID_59_">
				<g id="XMLID_61_">
					<path style="fill:#FFFFFF;" d="M122.023,159.637c-0.442,0.165-0.922,0.153-1.356-0.035c-0.444-0.192-0.787-0.547-0.965-0.997
						l-1.02-2.581c-0.178-0.45-0.17-0.943,0.023-1.387c0.193-0.444,0.547-0.787,0.997-0.965l5.06-2
						c0.45-0.178,0.943-0.17,1.387,0.023c0.444,0.193,0.787,0.547,0.965,0.997l1.02,2.581c0.178,0.45,0.17,0.943-0.023,1.387
						c-0.193,0.444-0.547,0.787-0.997,0.965l-5.06,2C122.044,159.629,122.034,159.633,122.023,159.637z M124.938,152.045
						c-0.008,0.003-0.016,0.006-0.024,0.009l-5.06,2c-0.348,0.138-0.622,0.403-0.771,0.746c-0.149,0.344-0.155,0.725-0.017,1.073
						l1.02,2.581c0.138,0.348,0.403,0.622,0.746,0.771c0.343,0.149,0.717,0.156,1.073,0.018l5.06-2c0,0,0,0,0,0
						c0.719-0.284,1.073-1.1,0.789-1.82l-1.02-2.581c-0.138-0.348-0.403-0.622-0.746-0.771
						C125.651,151.927,125.279,151.917,124.938,152.045z"/>
				</g>
				<g id="XMLID_60_">
					<path style="fill:#FFFFFF;" d="M123.605,156.052c-0.093,0.035-0.198,0.04-0.3,0.011l-4.283-1.252
						c-0.092-0.027-0.145-0.123-0.118-0.215c0.027-0.092,0.123-0.145,0.215-0.118l4.283,1.252c0.057,0.017,0.118-0.008,0.148-0.06
						l2.148-3.836c0.047-0.084,0.152-0.113,0.236-0.066c0.083,0.047,0.113,0.152,0.066,0.236l-2.148,3.836
						C123.796,155.94,123.707,156.014,123.605,156.052z"/>
				</g>
			</g>
		</g>
		<g>
			<path id="XMLID_58_" style="fill:#FFFFFF;stroke:#263238;stroke-linecap:round;stroke-linejoin:round;stroke-miterlimit:10;" d="
				M208.662,154.469L208.662,154.469c-0.714,0-1.292-0.579-1.292-1.292v-4.452c0-0.714,0.579-1.293,1.292-1.293l0,0
				c0.714,0,1.293,0.579,1.293,1.293v4.452C209.955,153.89,209.376,154.469,208.662,154.469z"/>
			<path id="XMLID_57_" style="fill:#FFFFFF;stroke:#263238;stroke-linecap:round;stroke-linejoin:round;stroke-miterlimit:10;" d="
				M217.1,153.95L217.1,153.95c-0.694,0.169-1.393-0.257-1.561-0.951l-0.85-3.5c-0.169-0.694,0.257-1.393,0.951-1.561l0,0
				c0.694-0.169,1.393,0.257,1.561,0.951l0.85,3.5C218.219,153.083,217.793,153.782,217.1,153.95z"/>
			<path id="XMLID_56_" style="fill:#FFFFFF;stroke:#263238;stroke-linecap:round;stroke-linejoin:round;stroke-miterlimit:10;" d="
				M214.945,153.95L214.945,153.95c-0.694,0.169-1.393-0.257-1.561-0.951l-1.051-4.326c-0.168-0.694,0.257-1.393,0.951-1.561l0,0
				c0.694-0.169,1.393,0.257,1.561,0.951l1.051,4.326C216.065,153.083,215.639,153.782,214.945,153.95z"/>
			<path id="XMLID_55_" style="fill:#FFFFFF;stroke:#263238;stroke-linecap:round;stroke-linejoin:round;stroke-miterlimit:10;" d="
				M212.014,154.122L212.014,154.122c-0.705,0.113-1.368-0.367-1.481-1.072l-0.705-4.396c-0.113-0.705,0.367-1.368,1.071-1.481l0,0
				c0.705-0.113,1.368,0.367,1.481,1.072l0.705,4.396C213.199,153.345,212.719,154.008,212.014,154.122z"/>
		</g>
		<path id="XMLID_54_" style="fill:#C6FF00;stroke:#263238;stroke-linecap:round;stroke-linejoin:round;stroke-miterlimit:10;" d="
			M390.816,209.283l-6.809,27.361l-44.25,11.625l0.125,4.875l50.625-7.5c0,0,12.375-34.875,12.625-37.875s-6.5-7.375-6.5-7.375"/>
		<path id="XMLID_53_" style="fill:#FFFFFF;stroke:#263238;stroke-linecap:round;stroke-linejoin:round;stroke-miterlimit:10;" d="
			M339.757,248.269c0,0-7.75-4-8.875-4.375s-7.75,2.5-9.75,2.625s-3.75-0.125-2.875,1.125s2,1.5,3.25,1.5s6.25-0.625,7-0.625
			s-2.25,2.25-4.375,4.125s-6.625,5-6.625,5.625s1.25,1,2.375,0.875s2.625-0.375,3.5-0.375s5.125,0.5,6.75-0.375
			s7.625-4.75,7.625-4.75l2.125-0.5L339.757,248.269z"/>
		<g>
			<path id="XMLID_52_" style="fill:#FFFFFF;stroke:#263238;stroke-linecap:round;stroke-linejoin:round;stroke-miterlimit:10;" d="
				M374.75,159.54c0,0-4.972,14.012-3.842,18.305c1.13,4.294,5.424,9.153,9.266,9.379c3.842,0.226,11.299-2.373,12.203-4.407
				c0.904-2.034,1.808-4.294,1.808-4.294s3.842,0,4.52-2.034c0.678-2.034,0.678-3.842-1.13-4.972
				c-1.808-1.13-3.842-0.678-3.842-0.678s-4.294-2.034-4.52-6.554c-0.226-4.52,0.678-8.136,0.678-8.136s-3.39,2.034-7.006,3.164
				C379.27,160.444,374.75,159.54,374.75,159.54z"/>
			<path style="fill:#263238;" d="M377.099,165.966c-0.35,1.106-0.998,1.887-1.449,1.745c-0.451-0.142-0.532-1.154-0.183-2.26
				c0.349-1.106,0.998-1.887,1.449-1.745C377.367,163.848,377.449,164.86,377.099,165.966z"/>
			<path style="fill:#263238;" d="M384.353,168.089c-0.35,1.106-0.998,1.887-1.449,1.745c-0.451-0.142-0.532-1.154-0.183-2.26
				c0.349-1.106,0.998-1.887,1.449-1.745C384.621,165.971,384.703,166.983,384.353,168.089z"/>
			<path style="fill:none;stroke:#263238;stroke-linecap:round;stroke-linejoin:round;stroke-miterlimit:10;" d="M378.702,165.657
				c0,0-0.177,3.185-2.123,4.423c-0.334,0.213-0.626,0.399-0.882,0.562c-0.914,0.585-0.992,1.89-0.155,2.581
				c0.555,0.458,1.224,0.857,1.921,0.926"/>
			<path style="fill:none;stroke:#263238;stroke-linecap:round;stroke-linejoin:round;stroke-miterlimit:10;" d="M375.871,178.042
				c0,0,4.6,2.3,7.431-0.708"/>
			<path style="fill:none;stroke:#263238;stroke-linecap:round;stroke-linejoin:round;stroke-miterlimit:10;" d="M375.694,161.941
				c0,0,1.769-1.946,3.362-0.177"/>
			<path style="fill:none;stroke:#263238;stroke-linecap:round;stroke-linejoin:round;stroke-miterlimit:10;" d="M382.418,163.003
				c0,0,2.831-1.946,3.715,1.415"/>
		</g>
		<g>
			<path id="XMLID_51_" style="fill:#C6FF00;stroke:#263238;stroke-linecap:round;stroke-linejoin:round;stroke-miterlimit:10;" d="
				M116.74,387.952l19.235,15.388c0,0-0.167,1.004-2.509,1.004s-25.59-5.854-26.761-5.854s-1.505-0.836-1.505-1.673
				s4.181-10.704,4.181-10.704L116.74,387.952z"/>
			<path style="fill:#FFFFFF;stroke:#263238;stroke-linecap:round;stroke-linejoin:round;stroke-miterlimit:10;" d="
				M105.199,396.816c0,0.836,0.335,1.673,1.505,1.673s24.42,5.854,26.761,5.854c2.342,0,2.509-1.004,2.509-1.004l-30.165-8.433
				C105.442,395.889,105.199,396.615,105.199,396.816z"/>
		</g>
		<g>
			<path id="XMLID_50_" style="fill:#C6FF00;stroke:#263238;stroke-linecap:round;stroke-linejoin:round;stroke-miterlimit:10;" d="
				M207.059,378.753c0,0-0.167,10.872,0,11.875c0.167,1.004,0.669,1.171,1.505,1.171s26.427-0.669,26.928-1.505
				c0.502-0.836-0.334-1.338-0.334-1.338l-18.566-9.534l-1.004-1.505L207.059,378.753z"/>
			<path style="fill:#FFFFFF;stroke:#263238;stroke-linecap:round;stroke-linejoin:round;stroke-miterlimit:10;" d="
				M207.059,390.628c0.167,1.004,0.669,1.171,1.505,1.171s26.427-0.669,26.928-1.505c0.502-0.836-0.334-1.338-0.334-1.338
				l-0.966-0.496l-27.198,0.504C207.005,389.808,207.025,390.424,207.059,390.628z"/>
		</g>
		<g>
			
				<polygon id="XMLID_49_" style="fill:#FFFFFF;stroke:#263238;stroke-linecap:round;stroke-linejoin:round;stroke-miterlimit:10;" points="
				97.171,265.854 142.999,264.85 145.007,305.661 93.826,305.661 			"/>
			<path id="XMLID_3_" style="fill:#FFFFFF;stroke:#263238;stroke-linecap:round;stroke-linejoin:round;stroke-miterlimit:10;" d="
				M142.999,264.85l4.516,0.335c0,0,6.189,38.636,5.687,38.636c-0.502,0-8.196,1.84-8.196,1.84L142.999,264.85z"/>
			<polyline style="fill:none;stroke:#263238;stroke-linecap:round;stroke-linejoin:round;stroke-miterlimit:10;" points="
				97.171,265.854 118.238,289.52 142.276,264.973 			"/>
		</g>
		<g>
			<path id="XMLID_2_" style="fill:#FFFFFF;stroke:#263238;stroke-linecap:round;stroke-linejoin:round;stroke-miterlimit:10;" d="
				M138.604,242.291l4.944,4.072l43.479,10.179c0,0,2.908-2.327,3.199-2.908c0.291-0.582,6.834,0.145,7.562,0.145
				c0.727,0,2.036-0.436,2.036,0.291c0,0.727,0,1.6-0.727,2.036c-0.727,0.436-3.781,0.291-4.217,0.436
				c-0.436,0.145-2.763,0.872-2.763,0.872l12.942,4.799c0,0-1.018,1.163-2.036,1.6c-1.018,0.436-5.089,0.145-5.089,0.145
				s-4.653,1.6-6.253,1.745c-1.6,0.145-7.271-2.327-7.271-2.327s-35.772-3.054-39.989-4.072c-4.217-1.018-14.832-8.289-14.832-8.289
				L138.604,242.291z"/>
			<path id="XMLID_1_" style="fill:#FFFFFF;stroke:#263238;stroke-linecap:round;stroke-linejoin:round;stroke-miterlimit:10;" d="
				M111.702,208.264c-3.926-0.582-8.87,4.799-7.416,12.796c1.454,7.998,19.485,37.226,19.485,37.226l17.45-15.123
				C141.221,243.163,115.628,208.846,111.702,208.264z"/>
		</g>
	</g>
</g>
<g id="Clouds">
	<g>
		<path style="fill:#C6FF00;" d="M361.552,106.059c-3.701-2.019-5.384-0.336-6.73-2.019c-1.346-1.683,3.701-6.057-6.393-10.431
			c0,0-0.673-9.422-14.469-9.758c-13.796-0.336-10.095,9.422-13.796,11.777c-3.701,2.355-4.711-1.346-8.412,1.009
			c-3.702,2.355-2.019,7.066-5.047,7.739c-3.028,0.673-7.066-3.028-10.768-0.673c-3.701,2.355-3.701,4.374-5.384,4.374
			s-5.047-1.346-7.066,0c-2.019,1.346-4.374,3.028-4.374,3.028h85.131C364.244,111.107,365.253,108.078,361.552,106.059z"/>
		<path style="opacity:0.5;fill:#FFFFFF;" d="M361.552,106.059c-3.701-2.019-5.384-0.336-6.73-2.019
			c-1.346-1.683,3.701-6.057-6.393-10.431c0,0-0.673-9.422-14.469-9.758c-13.796-0.336-10.095,9.422-13.796,11.777
			c-3.701,2.355-4.711-1.346-8.412,1.009c-3.702,2.355-2.019,7.066-5.047,7.739c-3.028,0.673-7.066-3.028-10.768-0.673
			c-3.701,2.355-3.701,4.374-5.384,4.374s-5.047-1.346-7.066,0c-2.019,1.346-4.374,3.028-4.374,3.028h85.131
			C364.244,111.107,365.253,108.078,361.552,106.059z"/>
	</g>
	<g>
		<path style="fill:#FFFFFF;" d="M197.996,123.447c-2.195-1.197-3.192-0.199-3.99-1.197c-0.798-0.998,2.195-3.591-3.791-6.185
			c0,0-0.399-5.587-8.579-5.786c-8.18-0.199-5.986,5.587-8.18,6.983c-2.195,1.397-2.793-0.798-4.988,0.599
			c-2.195,1.397-1.197,4.19-2.993,4.589c-1.796,0.399-4.19-1.796-6.385-0.399c-2.195,1.397-2.195,2.594-3.192,2.594
			c-0.997,0-2.993-0.798-4.19,0c-1.197,0.798-2.594,1.796-2.594,1.796h50.479C199.592,126.44,200.191,124.644,197.996,123.447z"/>
	</g>
</g>
</svg>
