<?xml version="1.0" encoding="UTF-8" standalone="no" ?>
<!DOCTYPE svg PUBLIC "-//W3C//DTD SVG 1.1//EN" "http://www.w3.org/Graphics/SVG/1.1/DTD/svg11.dtd">
<svg xmlns="http://www.w3.org/2000/svg" xmlns:xlink="http://www.w3.org/1999/xlink" version="1.1" width="1080" height="500" viewBox="0 0 1080 500" xml:space="preserve">
<desc>Created with Fabric.js 5.2.4</desc>
<defs>
</defs>
<rect x="0" y="0" width="100%" height="100%" fill="transparent"></rect>
<g transform="matrix(1 0 0 1 540 250)" id="19bda737-0407-492e-b9ef-6471a2baa142"  >
<rect style="stroke: none; stroke-width: 1; stroke-dasharray: none; stroke-linecap: butt; stroke-dashoffset: 0; stroke-linejoin: miter; stroke-miterlimit: 4; fill: rgb(255,255,255); fill-rule: nonzero; opacity: 1; visibility: hidden;" vector-effect="non-scaling-stroke"  x="-540" y="-250" rx="0" ry="0" width="1080" height="500" />
</g>
<g transform="matrix(Infinity NaN NaN Infinity 0 0)" id="a4c7214a-e00c-4c5f-b55c-c877515bab55"  >
</g>
<g transform="matrix(1.21 0 0 1.21 242.14 250)"  >
<g style="" vector-effect="non-scaling-stroke"   >
		<g transform="matrix(1 0 0 1 0 0)"  >
<path style="stroke: none; stroke-width: 1; stroke-dasharray: none; stroke-linecap: butt; stroke-dashoffset: 0; stroke-linejoin: miter; stroke-miterlimit: 4; fill: rgb(178,219,209); fill-rule: nonzero; opacity: 1;" vector-effect="non-scaling-stroke"  transform=" translate(-212.6, -212.6)" d="M 59.275 341.983 C 60.062999999999995 342.23 60.852 342.47700000000003 61.641 342.724 C 62.894999999999996 343.116 64.019 343.15299999999996 65.02199999999999 342.892 C 101.109 398.685 201.911 420.457 278.9 399.429 C 365.965 375.649 420.38199999999995 297.197 400.445 224.19999999999996 C 389.49 184.09099999999995 358.366 153.97599999999994 318.101 138.92499999999995 C 317.834 123.93299999999995 321.076 94.70899999999995 346.7 72.02899999999995 C 348.688 73.62599999999995 351.21299999999997 74.58299999999996 353.961 74.58299999999996 C 360.369 74.58299999999996 365.563 69.38899999999995 365.563 62.98099999999995 C 365.563 56.57299999999995 360.367 51.38 353.96 51.38 C 347.55199999999996 51.38 342.358 56.574000000000005 342.358 62.982 C 342.358 66.278 343.733 69.253 345.94 71.365 C 320.338 94.08699999999999 316.893 123.27199999999999 317.097 138.555 C 302.69599999999997 133.281 287.14599999999996 129.925 270.945 128.717 C 273.783 114.019 280.945 96.19800000000001 297.858 81.22800000000001 C 299.846 82.825 302.371 83.78200000000001 305.12 83.78200000000001 C 311.528 83.78200000000001 316.722 78.58800000000001 316.722 72.18 C 316.722 65.772 311.52799999999996 60.578 305.12 60.578 C 298.712 60.578 293.51800000000003 65.772 293.51800000000003 72.18 C 293.51800000000003 75.47600000000001 294.89300000000003 78.45100000000001 297.1 80.563 C 280.011 95.729 272.79400000000004 113.775 269.94500000000005 128.645 C 250.84000000000006 127.32700000000001 230.84800000000004 128.994 210.78400000000005 134.019 C 210.68700000000004 134.043 210.59100000000004 134.067 210.49400000000006 134.092 C 210.36600000000007 134.12400000000002 210.23700000000005 134.157 210.10900000000007 134.18900000000002 C 209.84900000000007 134.25500000000002 209.58900000000006 134.32200000000003 209.32800000000006 134.389 C 209.19600000000005 134.423 209.06500000000005 134.45700000000002 208.93300000000005 134.491 C 208.79000000000005 134.52800000000002 208.64600000000004 134.566 208.50300000000004 134.604 C 208.31400000000005 134.65400000000002 208.12400000000005 134.704 207.93500000000003 134.75400000000002 C 207.82800000000003 134.78300000000002 207.72000000000003 134.811 207.61300000000003 134.84000000000003 C 207.31700000000004 134.91900000000004 207.02100000000002 134.99900000000002 206.72400000000002 135.08000000000004 L 206.699 135.08700000000005 C 206.33200000000002 135.18700000000004 205.966 135.28900000000004 205.59900000000002 135.39100000000005 L 205.556 135.40300000000005 C 205.197 135.50300000000004 204.83800000000002 135.60500000000005 204.479 135.70700000000005 L 204.45700000000002 135.71300000000005 C 199.996 136.98800000000006 195.54200000000003 138.42800000000005 191.11 140.02300000000005 C 209.851 119.03000000000006 234.49 70.27000000000005 238.553 58.217000000000056 C 243.945 42.223000000000056 235.351 24.885000000000055 219.356 19.49300000000006 C 203.361 14.10100000000006 186.024 22.695000000000057 180.632 38.690000000000055 C 177.21800000000002 48.815000000000055 169.677 88.34900000000005 168.659 117.36800000000005 C 152.66199999999998 93.20200000000006 125.981 63.71900000000005 117.857 56.89200000000005 C 104.934 46.03300000000005 85.656 47.70600000000005 74.797 60.629000000000055 C 63.93799999999999 73.55200000000005 65.61099999999999 92.83000000000006 78.53399999999999 103.68900000000005 C 88.96 112.45000000000005 141.414 144.89200000000005 166.993 150.31100000000004 C 101.56 182.638 46.897 246.247 51.746 304.318 C 42.323 308.447 35.184 307.98199999999997 26.422 310.277 C 24.753 310.714 23.122 311.43899999999996 22.176000000000002 313.00399999999996 C 12.371 329.223 52.348 339.812 59.275 341.983 z" stroke-linecap="round" />
</g>
		<g transform="matrix(1 0 0 1 0 55.16)"  >
<path style="stroke: none; stroke-width: 1; stroke-dasharray: none; stroke-linecap: butt; stroke-dashoffset: 0; stroke-linejoin: miter; stroke-miterlimit: 4; fill: rgb(245,213,113); fill-rule: nonzero; opacity: 1;" vector-effect="non-scaling-stroke"  transform=" translate(-212.6, -267.76)" d="M 400.444 224.201 C 389.48900000000003 184.09199999999998 358.365 153.97699999999998 318.1 138.926 C 318.206 144.904 318.87100000000004 148.619 318.89700000000005 148.755 C 318.94900000000007 149.02599999999998 318.77000000000004 149.28799999999998 318.50000000000006 149.339 L 318.40500000000003 149.34799999999998 C 318.17 149.34799999999998 317.961 149.18099999999998 317.915 148.94199999999998 C 317.88800000000003 148.802 317.182 144.86199999999997 317.098 138.55499999999998 C 302.697 133.28099999999998 287.147 129.92499999999998 270.946 128.71699999999998 C 267.77000000000004 145.166 270.009 157.70299999999997 270.057 157.95399999999998 C 270.10900000000004 158.22499999999997 269.93 158.48699999999997 269.66 158.53799999999998 L 269.565 158.54699999999997 C 269.33 158.54699999999997 269.121 158.37999999999997 269.075 158.14099999999996 C 269.027 157.88799999999998 266.764 145.24599999999995 269.945 128.64499999999995 C 253.513 127.51199999999996 236.42399999999998 128.59599999999995 219.19799999999998 132.11599999999996 L 219.20199999999997 132.10699999999997 C 215.91399999999996 132.77899999999997 212.62199999999996 133.53799999999998 209.32799999999997 134.38899999999998 C 209.19599999999997 134.42299999999997 209.06499999999997 134.457 208.93299999999996 134.49099999999999 C 208.78999999999996 134.528 208.64599999999996 134.56599999999997 208.50299999999996 134.60399999999998 C 208.31399999999996 134.654 208.12399999999997 134.70399999999998 207.93499999999995 134.754 C 207.82799999999995 134.783 207.71999999999994 134.81099999999998 207.61299999999994 134.84 C 207.31699999999995 134.919 207.02099999999993 134.999 206.72399999999993 135.08 L 206.69899999999993 135.08700000000002 C 206.33199999999994 135.187 205.96599999999992 135.28900000000002 205.59899999999993 135.39100000000002 L 205.55599999999993 135.40300000000002 C 205.19699999999992 135.50300000000001 204.83799999999994 135.60500000000002 204.47899999999993 135.70700000000002 L 204.45699999999994 135.71300000000002 C 199.99499999999995 136.98800000000003 195.53999999999994 138.43000000000004 191.10599999999994 140.02700000000002 C 186.74499999999995 144.911 182.70399999999995 148.29100000000003 179.31599999999995 149.35500000000002 C 177.50699999999995 150.97000000000003 174.37399999999994 151.383 170.29799999999994 150.87500000000003 C 169.25599999999994 150.74500000000003 168.15199999999996 150.55500000000004 166.99299999999994 150.30900000000003 C 101.56 182.638 46.897 246.247 51.746 304.318 C 42.323 308.447 35.184 307.98199999999997 26.422 310.277 C 24.753 310.714 23.122 311.43899999999996 22.176000000000002 313.00399999999996 C 12.371000000000002 329.22299999999996 52.348 339.813 59.275 341.984 C 60.062999999999995 342.231 60.852 342.478 61.641 342.72499999999997 C 62.894999999999996 343.11699999999996 64.019 343.15399999999994 65.02199999999999 342.893 C 78.02099999999999 362.98999999999995 99.416 378.671 125.071 389.52799999999996 L 125.085 389.53399999999993 C 125.982 389.91299999999995 126.884 390.2869999999999 127.791 390.6549999999999 L 127.829 390.6699999999999 C 128.114 390.7849999999999 128.399 390.8999999999999 128.684 391.0139999999999 L 128.743 391.0379999999999 C 129.347 391.2789999999999 129.953 391.5169999999999 130.56 391.7529999999999 L 130.568 391.75599999999986 C 130.865 391.87099999999987 131.162 391.98499999999984 131.46 392.0989999999999 L 131.50900000000001 392.1179999999999 C 132.429 392.46999999999986 133.354 392.8149999999999 134.28400000000002 393.15499999999986 L 134.29000000000002 393.15699999999987 C 165.168 404.43599999999986 201.13000000000002 409.1489999999999 235.704 406.6559999999999 L 235.707 406.6589999999999 C 249.464 405.66699999999986 262.998 403.52999999999986 275.907 400.2139999999999 L 275.889 400.1989999999999 C 276.892 399.9419999999999 277.904 399.7019999999999 278.899 399.4309999999999 C 365.964 375.65 420.381 297.197 400.444 224.201 z" stroke-linecap="round" />
</g>
		<g transform="matrix(1 0 0 1 -169.77 111.09)"  >
<path style="stroke: none; stroke-width: 1; stroke-dasharray: none; stroke-linecap: butt; stroke-dashoffset: 0; stroke-linejoin: miter; stroke-miterlimit: 4; fill: rgb(18,14,50); fill-rule: nonzero; opacity: 1;" vector-effect="non-scaling-stroke"  transform=" translate(-42.83, -323.69)" d="M 51.746 304.318 C 42.323 308.447 35.184 307.98199999999997 26.422 310.277 C 24.753 310.714 23.122 311.43899999999996 22.176000000000002 313.00399999999996 C 12.371000000000002 329.22299999999996 52.348 339.813 59.275 341.984 C 60.062999999999995 342.231 60.852 342.478 61.641 342.72499999999997 C 62.894999999999996 343.11699999999996 64.019 343.15399999999994 65.02199999999999 342.893 C 60.29899999999999 335.59099999999995 56.68399999999999 327.70599999999996 54.376999999999995 319.258 C 53.032 314.335 52.166 309.347 51.746 304.318 z" stroke-linecap="round" />
</g>
		<g transform="matrix(1 0 0 1 -82.86 76.56)"  >
<path style="stroke: none; stroke-width: 1; stroke-dasharray: none; stroke-linecap: butt; stroke-dashoffset: 0; stroke-linejoin: miter; stroke-miterlimit: 4; fill: rgb(18,14,50); fill-rule: nonzero; opacity: 1;" vector-effect="non-scaling-stroke"  transform=" translate(-129.74, -289.15)" d="M 131.131 326.352 C 111.261 275.304 113.422 220.57699999999997 129.617 173.027 C 108.17999999999999 188.706 89.428 207.521 75.666 227.73199999999997 C 71.827 261.611 75.314 297.02599999999995 88.472 330.82899999999995 C 96.817 352.26899999999995 108.445 371.50199999999995 122.37899999999999 388.36299999999994 C 141.44 396.78299999999996 162.992 402.4769999999999 185.27599999999998 405.28299999999996 C 162.295 383.971 143.251 357.49 131.131 326.352 z" stroke-linecap="round" />
</g>
		<g transform="matrix(1 0 0 1 1.99 56.78)"  >
<path style="stroke: none; stroke-width: 1; stroke-dasharray: none; stroke-linecap: butt; stroke-dashoffset: 0; stroke-linejoin: miter; stroke-miterlimit: 4; fill: rgb(18,14,50); fill-rule: nonzero; opacity: 1;" vector-effect="non-scaling-stroke"  transform=" translate(-214.59, -269.38)" d="M 179.317 149.356 C 177.508 150.971 174.375 151.384 170.299 150.876 C 150.345 200.97 146.056 260.51 167.554 315.742 C 182.061 353.01 206.483 383.60900000000004 235.708 406.65700000000004 C 249.465 405.665 262.999 403.528 275.908 400.21200000000005 C 247.774 377.40200000000004 224.312 347.482 210.214 311.26400000000007 C 186.63 250.67600000000007 194.083 184.90700000000007 219.202 132.10700000000006 C 215.914 132.77900000000005 212.62199999999999 133.53800000000007 209.328 134.38900000000007 C 209.196 134.42300000000006 209.065 134.45700000000008 208.933 134.49100000000007 C 208.79 134.52800000000008 208.646 134.56600000000006 208.503 134.60400000000007 C 208.314 134.65400000000008 208.124 134.70400000000006 207.93499999999997 134.75400000000008 C 207.82799999999997 134.78300000000007 207.71999999999997 134.81100000000006 207.61299999999997 134.8400000000001 C 207.31699999999998 134.9190000000001 207.02099999999996 134.99900000000008 206.72399999999996 135.0800000000001 L 206.69899999999996 135.0870000000001 C 206.33199999999997 135.1870000000001 205.96599999999995 135.2890000000001 205.59899999999996 135.3910000000001 L 205.55599999999995 135.4030000000001 C 205.19699999999995 135.5030000000001 204.83799999999997 135.6050000000001 204.47899999999996 135.7070000000001 L 204.45699999999997 135.7130000000001 C 199.99499999999998 136.9880000000001 195.53999999999996 138.43000000000012 191.10599999999997 140.0270000000001 C 186.746 144.912 182.705 148.292 179.317 149.356 z" stroke-linecap="round" />
</g>
		<g transform="matrix(1 0 0 1 79.89 -103.03)"  >
<path style="stroke: none; stroke-width: 1; stroke-dasharray: none; stroke-linecap: butt; stroke-dashoffset: 0; stroke-linejoin: miter; stroke-miterlimit: 4; fill: rgb(18,14,50); fill-rule: nonzero; opacity: 1;" vector-effect="non-scaling-stroke"  transform=" translate(-292.49, -109.56)" d="M 269.074 158.142 C 269.12 158.381 269.329 158.548 269.564 158.548 L 269.65900000000005 158.53900000000002 C 269.92900000000003 158.48700000000002 270.10800000000006 158.22600000000003 270.05600000000004 157.955 C 270.00800000000004 157.704 267.76900000000006 145.167 270.94500000000005 128.71800000000002 C 273.7830000000001 114.02000000000001 280.94500000000005 96.19900000000001 297.85800000000006 81.22900000000001 C 299.84600000000006 82.82600000000001 302.37100000000004 83.78300000000002 305.12000000000006 83.78300000000002 C 311.5280000000001 83.78300000000002 316.72200000000004 78.58900000000001 316.72200000000004 72.18100000000001 C 316.72200000000004 65.77300000000001 311.528 60.57900000000001 305.12000000000006 60.57900000000001 C 298.71200000000005 60.57900000000001 293.5180000000001 65.77300000000001 293.5180000000001 72.18100000000001 C 293.5180000000001 75.47700000000002 294.8930000000001 78.45200000000001 297.1000000000001 80.56400000000001 C 280.0110000000001 95.73 272.7940000000001 113.77600000000001 269.94500000000005 128.64600000000002 C 266.763 145.247 269.026 157.888 269.074 158.142 z" stroke-linecap="round" />
</g>
		<g transform="matrix(1 0 0 1 128.73 -112.23)"  >
<path style="stroke: none; stroke-width: 1; stroke-dasharray: none; stroke-linecap: butt; stroke-dashoffset: 0; stroke-linejoin: miter; stroke-miterlimit: 4; fill: rgb(18,14,50); fill-rule: nonzero; opacity: 1;" vector-effect="non-scaling-stroke"  transform=" translate(-341.32, -100.36)" d="M 318.404 149.349 L 318.499 149.34 C 318.769 149.288 318.94800000000004 149.02700000000002 318.896 148.756 C 318.87 148.62 318.206 144.905 318.099 138.927 C 317.832 123.93499999999999 321.074 94.71099999999998 346.698 72.03099999999999 C 348.686 73.62799999999999 351.21099999999996 74.585 353.959 74.585 C 360.367 74.585 365.561 69.39099999999999 365.561 62.98299999999999 C 365.561 56.57499999999999 360.367 51.38 353.96 51.38 C 347.55199999999996 51.38 342.358 56.574000000000005 342.358 62.982 C 342.358 66.278 343.733 69.253 345.94 71.365 C 320.338 94.08699999999999 316.893 123.27199999999999 317.097 138.555 C 317.181 144.862 317.887 148.80200000000002 317.914 148.942 C 317.96 149.182 318.169 149.349 318.404 149.349 z" stroke-linecap="round" />
</g>
		<g transform="matrix(1 0 0 1 53.39 34.38)"  >
<path style="stroke: none; stroke-width: 1; stroke-dasharray: none; stroke-linecap: butt; stroke-dashoffset: 0; stroke-linejoin: miter; stroke-miterlimit: 4; fill: rgb(18,14,50); fill-rule: nonzero; opacity: 1;" vector-effect="non-scaling-stroke"  transform=" translate(-265.99, -246.98)" d="M 262.878 227.678 C 252.2 229.4 244.93699999999998 239.438 246.65599999999998 250.099 C 248.37499999999997 260.76 258.42499999999995 268.006 269.104 266.284 C 279.782 264.562 287.04499999999996 254.524 285.32599999999996 243.863 C 283.607 233.202 273.556 225.956 262.878 227.678 z" stroke-linecap="round" />
</g>
		<g transform="matrix(1 0 0 1 31.06 64.96)"  >
<path style="stroke: none; stroke-width: 1; stroke-dasharray: none; stroke-linecap: butt; stroke-dashoffset: 0; stroke-linejoin: miter; stroke-miterlimit: 4; fill: rgb(240,76,66); fill-rule: nonzero; opacity: 1;" vector-effect="non-scaling-stroke"  transform=" translate(-243.66, -277.55)" d="M 241.71 265.466 C 233.132 266.849 227.05 273.383 228.127 280.059 C 229.204 286.735 237.031 291.026 245.609 289.64200000000005 C 254.187 288.25900000000007 260.269 281.7250000000001 259.192 275.04900000000004 C 258.115 268.373 250.288 264.082 241.71 265.466 z" stroke-linecap="round" />
</g>
		<g transform="matrix(1 0 0 1 140.34 20.72)"  >
<path style="stroke: none; stroke-width: 1; stroke-dasharray: none; stroke-linecap: butt; stroke-dashoffset: 0; stroke-linejoin: miter; stroke-miterlimit: 4; fill: rgb(18,14,50); fill-rule: nonzero; opacity: 1;" vector-effect="non-scaling-stroke"  transform=" translate(-352.94, -233.32)" d="M 372.274 230.201 C 370.555 219.54 360.505 212.29399999999998 349.826 214.016 C 339.148 215.738 331.88500000000005 225.77599999999998 333.60400000000004 236.43699999999998 C 335.32300000000004 247.09799999999998 345.37300000000005 254.344 356.052 252.62199999999999 C 366.731 250.9 373.993 240.862 372.274 230.201 z" stroke-linecap="round" />
</g>
		<g transform="matrix(1 0 0 1 171.15 42.72)"  >
<path style="stroke: none; stroke-width: 1; stroke-dasharray: none; stroke-linecap: butt; stroke-dashoffset: 0; stroke-linejoin: miter; stroke-miterlimit: 4; fill: rgb(240,76,66); fill-rule: nonzero; opacity: 1;" vector-effect="non-scaling-stroke"  transform=" translate(-383.75, -255.32)" d="M 381.8 243.233 C 373.22200000000004 244.616 367.14 251.15 368.217 257.826 C 369.294 264.502 377.121 268.79200000000003 385.69899999999996 267.40900000000005 C 394.27699999999993 266.02600000000007 400.359 259.4920000000001 399.282 252.81600000000006 C 398.206 246.14 390.379 241.85 381.8 243.233 z" stroke-linecap="round" />
</g>
		<g transform="matrix(1 0 0 1 100.97 47.54)"  >
<path style="stroke: none; stroke-width: 1; stroke-dasharray: none; stroke-linecap: butt; stroke-dashoffset: 0; stroke-linejoin: miter; stroke-miterlimit: 4; fill: rgb(18,14,50); fill-rule: nonzero; opacity: 1;" vector-effect="non-scaling-stroke"  transform=" translate(-313.57, -260.14)" d="M 320.599 254.334 C 320.054 254.422 319.683 254.935 319.771 255.48 C 320.428 259.555 318.151 263.323 314.696 263.88 C 311.226 264.438 307.89200000000005 261.575 307.23600000000005 257.501 C 307.148 256.955 306.63100000000003 256.58099999999996 306.08900000000006 256.673 C 305.54400000000004 256.761 305.17300000000006 257.274 305.2610000000001 257.82 C 306.0220000000001 262.53499999999997 309.73500000000007 265.95 313.8350000000001 265.95 C 314.2250000000001 265.95 314.6190000000001 265.919 315.01400000000007 265.85499999999996 C 319.55800000000005 265.12199999999996 322.5780000000001 260.325 321.7460000000001 255.16199999999995 C 321.657 254.617 321.145 254.244 320.599 254.334 z" stroke-linecap="round" />
</g>
		<g transform="matrix(1 0 0 1 -89.12 -112.19)"  >
<path style="stroke: none; stroke-width: 1; stroke-dasharray: none; stroke-linecap: butt; stroke-dashoffset: 0; stroke-linejoin: miter; stroke-miterlimit: 4; fill: rgb(190,224,216); fill-rule: nonzero; opacity: 1;" vector-effect="non-scaling-stroke"  transform=" translate(-123.48, -100.4)" d="M 179.317 149.356 C 177.94400000000002 149.787 176.678 149.839 175.542 149.456 C 169.673 147.47699999999998 168.07 134.189 168.66 117.368 C 152.663 93.202 125.982 63.718999999999994 117.858 56.891999999999996 C 104.935 46.032999999999994 85.65700000000001 47.705999999999996 74.798 60.629 C 63.93899999999999 73.55199999999999 65.612 92.83 78.535 103.689 C 88.961 112.44999999999999 141.415 144.892 166.994 150.31099999999998 C 168.153 150.557 169.257 150.74699999999999 170.299 150.87699999999998 C 174.374 151.384 177.508 150.971 179.317 149.356 z" stroke-linecap="round" />
</g>
		<g transform="matrix(1 0 0 1 23.48 -60.18)"  >
<path style="stroke: none; stroke-width: 1; stroke-dasharray: none; stroke-linecap: butt; stroke-dashoffset: 0; stroke-linejoin: miter; stroke-miterlimit: 4; fill: rgb(255,228,143); fill-rule: nonzero; opacity: 1;" vector-effect="non-scaling-stroke"  transform=" translate(-236.08, -152.42)" d="M 223.953 167.257 C 228.247 170.767 237.15800000000002 166.96800000000002 243.85500000000002 158.774 C 250.55300000000003 150.579 252.50100000000003 141.091 248.20700000000002 137.581 C 243.913 134.071 235.002 137.86999999999998 228.305 146.064 C 221.607 154.259 219.659 163.747 223.953 167.257 z" stroke-linecap="round" />
</g>
		<g transform="matrix(1 0 0 1 5.96 -18.3)"  >
<path style="stroke: none; stroke-width: 1; stroke-dasharray: none; stroke-linecap: butt; stroke-dashoffset: 0; stroke-linejoin: miter; stroke-miterlimit: 4; fill: rgb(255,228,143); fill-rule: nonzero; opacity: 1;" vector-effect="non-scaling-stroke"  transform=" translate(-218.56, -194.3)" d="M 222.384 175.52 C 216.95 174.413 210.831 181.922 208.718 192.293 C 206.605 202.663 209.297 211.96800000000002 214.731 213.07600000000002 C 220.165 214.18300000000002 226.284 206.67400000000004 228.397 196.30300000000003 C 230.51 185.932 227.818 176.627 222.384 175.52 z" stroke-linecap="round" />
</g>
		<g transform="matrix(1 0 0 1 34.18 -33)"  >
<path style="stroke: none; stroke-width: 1; stroke-dasharray: none; stroke-linecap: butt; stroke-dashoffset: 0; stroke-linejoin: miter; stroke-miterlimit: 4; fill: rgb(255,228,143); fill-rule: nonzero; opacity: 1;" vector-effect="non-scaling-stroke"  transform=" translate(-246.78, -179.6)" d="M 233.909 176.979 C 232.498 183.90300000000002 237.11599999999999 190.69000000000003 244.224 192.139 C 251.332 193.58800000000002 258.238 189.149 259.649 182.22500000000002 C 261.06 175.30100000000002 256.442 168.514 249.334 167.06500000000003 C 242.226 165.616 235.32 170.055 233.909 176.979 z" stroke-linecap="round" />
</g>
</g>
</g>
<g transform="matrix(1.19 0 0 1.19 755.06 372)" style="" id="ce609b1f-16b9-40c1-b83d-5627e02538b2"  >
		<text xml:space="preserve" font-family="Raleway" font-size="200" font-style="normal" font-weight="900" style="stroke: none; stroke-width: 1; stroke-dasharray: none; stroke-linecap: butt; stroke-dashoffset: 0; stroke-linejoin: miter; stroke-miterlimit: 4; fill: rgb(0,0,0); fill-rule: nonzero; opacity: 1; white-space: pre;" ><tspan x="-219" y="62.83" >Hive</tspan></text>
</g>
<g transform="matrix(NaN NaN NaN NaN 0 0)"  >
<g style=""   >
</g>
</g>
<g transform="matrix(NaN NaN NaN NaN 0 0)"  >
<g style=""   >
</g>
</g>
<g transform="matrix(NaN NaN NaN NaN 0 0)"  >
<g style=""   >
</g>
</g>
<g transform="matrix(1 0 0 1 624.5 209.01)" style="" id="d925f006-bb94-467e-ab8d-2d129e2a8993"  >
		<text xml:space="preserve" font-family="Alegreya" font-size="134" font-style="normal" font-weight="700" style="stroke: none; stroke-width: 1; stroke-dasharray: none; stroke-linecap: butt; stroke-dashoffset: 0; stroke-linejoin: miter; stroke-miterlimit: 4; fill: rgb(56,55,55); fill-rule: nonzero; opacity: 1; white-space: pre;" ><tspan x="-125.22" y="42.09" >Skill</tspan></text>
</g>
<g transform="matrix(1 0 0 1 837 97)" id="9347afca-64cd-46e5-a6f9-e1b685631245"  >
<circle style="stroke: rgb(143,110,19); stroke-width: 0; stroke-dasharray: none; stroke-linecap: butt; stroke-dashoffset: 0; stroke-linejoin: miter; stroke-miterlimit: 4; fill: rgb(179,140,7); fill-rule: nonzero; opacity: 1;" vector-effect="non-scaling-stroke"  cx="0" cy="0" r="35" />
</g>
<g transform="matrix(0.93 0 0 0.93 706.7 289.3)" id="9347afca-64cd-46e5-a6f9-e1b685631245"  >
<circle style="stroke: rgb(143,110,19); stroke-width: 0; stroke-dasharray: none; stroke-linecap: butt; stroke-dashoffset: 0; stroke-linejoin: miter; stroke-miterlimit: 4; fill: rgb(179,140,7); fill-rule: nonzero; opacity: 1;" vector-effect="non-scaling-stroke"  cx="0" cy="0" r="35" />
</g>
<g transform="matrix(0.46 0 0 0.46 657.95 167.05)" id="9347afca-64cd-46e5-a6f9-e1b685631245"  >
<circle style="stroke: rgb(143,110,19); stroke-width: 0; stroke-dasharray: none; stroke-linecap: butt; stroke-dashoffset: 0; stroke-linejoin: miter; stroke-miterlimit: 4; fill: rgb(179,140,7); fill-rule: nonzero; opacity: 1;" vector-effect="non-scaling-stroke"  cx="0" cy="0" r="35" />
</g>
<g transform="matrix(0.64 0 0 0.64 975.45 262.55)" id="9347afca-64cd-46e5-a6f9-e1b685631245"  >
<circle style="stroke: rgb(143,110,19); stroke-width: 0; stroke-dasharray: none; stroke-linecap: butt; stroke-dashoffset: 0; stroke-linejoin: miter; stroke-miterlimit: 4; fill: rgb(179,140,7); fill-rule: nonzero; opacity: 1;" vector-effect="non-scaling-stroke"  cx="0" cy="0" r="35" />
</g>
<g transform="matrix(0.64 0 0 0.64 483.4 75.5)" id="9347afca-64cd-46e5-a6f9-e1b685631245"  >
<circle style="stroke: rgb(143,110,19); stroke-width: 0; stroke-dasharray: none; stroke-linecap: butt; stroke-dashoffset: 0; stroke-linejoin: miter; stroke-miterlimit: 4; fill: rgb(179,140,7); fill-rule: nonzero; opacity: 1;" vector-effect="non-scaling-stroke"  cx="0" cy="0" r="35" />
</g>
</svg>